<svg width="340" height="99" viewBox="0 0 340 99" fill="none" xmlns="http://www.w3.org/2000/svg">
<path d="M13.3655 40.7313C15.3065 40.7313 16.9609 40.941 18.3287 41.3603C19.7095 41.7797 20.8363 42.3451 21.7091 43.0568C22.5949 43.7684 23.2398 44.6007 23.6436 45.5537C24.0474 46.5068 24.2493 47.517 24.2493 48.5844C24.2493 49.0292 24.1777 49.4231 24.0344 49.7662C23.8911 50.1093 23.6957 50.4016 23.4482 50.643C23.2137 50.8844 22.9271 51.0687 22.5884 51.1958C22.2497 51.3228 21.885 51.3864 21.4942 51.3864C21.1555 51.3864 20.8103 51.3292 20.4585 51.2148C20.1068 51.1005 19.7746 50.9162 19.462 50.6621C19.1494 50.4079 18.8693 50.0775 18.6218 49.6709C18.3743 49.2643 18.1854 48.7687 18.0551 48.1841C17.9509 47.7648 17.7946 47.3963 17.5861 47.0786C17.3777 46.7609 17.1367 46.4941 16.8632 46.2781C16.6026 46.0493 16.3095 45.8841 15.9838 45.7825C15.6712 45.6681 15.3586 45.6109 15.0459 45.6109C14.4858 45.6109 13.9973 45.7253 13.5804 45.954C13.1766 46.1827 12.8379 46.5195 12.5643 46.9642C12.2908 47.3963 12.0888 47.93 11.9586 48.5654C11.8283 49.188 11.7632 49.8933 11.7632 50.6811C11.7632 53.7309 12.2321 55.9928 13.1701 57.4668C14.121 58.9282 15.6386 59.6588 17.7229 59.6588C18.3222 59.6588 18.9344 59.5826 19.5597 59.4301C20.185 59.2649 20.7647 59.087 21.2988 58.8964C21.8329 58.7058 22.2953 58.5342 22.6861 58.3818C23.0769 58.2166 23.344 58.134 23.4873 58.134C23.7869 58.134 24.0214 58.261 24.1907 58.5152C24.3601 58.7566 24.4447 59.0362 24.4447 59.3539C24.4447 59.4555 24.4382 59.5508 24.4252 59.6398C24.4252 59.7287 24.4057 59.8177 24.3666 59.9066C23.9888 60.847 23.4547 61.7174 22.7643 62.518C22.0739 63.3058 21.2467 63.9984 20.2827 64.5956C19.3317 65.1802 18.2505 65.6376 17.039 65.968C15.8275 66.2984 14.5118 66.4636 13.0919 66.4636C11.6329 66.4636 10.2977 66.2984 9.08617 65.968C7.87468 65.6249 6.78043 65.1547 5.80343 64.5575C4.83944 63.9476 3.9927 63.2359 3.26321 62.4227C2.54673 61.6094 1.94099 60.7263 1.44597 59.7732C0.963981 58.8074 0.599231 57.8036 0.351723 56.7616C0.117241 55.7069 0 54.6458 0 53.5784C0 52.4983 0.123754 51.4309 0.371263 50.3762C0.618772 49.3087 0.990035 48.2985 1.48505 47.3455C1.98007 46.3924 2.59884 45.5156 3.34137 44.7151C4.08389 43.9018 4.95017 43.2029 5.94021 42.6183C6.93024 42.0211 8.04403 41.5573 9.28157 41.2269C10.5191 40.8965 11.8804 40.7313 13.3655 40.7313Z" fill="black"/>
<path d="M86.8169 43.0758C87.0384 42.936 87.325 42.7391 87.6767 42.4849C88.0414 42.2181 88.5755 41.9576 89.279 41.7034C89.9824 41.4366 90.9138 41.2078 92.0732 41.0172C93.2326 40.8266 94.7242 40.7313 96.5479 40.7313C97.9157 40.7313 99.1077 40.8902 100.124 41.2078C101.14 41.5255 102.006 41.9576 102.723 42.504C103.452 43.0504 104.051 43.6985 104.52 44.4482C104.989 45.1852 105.361 45.9858 105.634 46.8499C105.908 47.7013 106.097 48.5908 106.201 49.5184C106.305 50.446 106.357 51.3673 106.357 52.2823V52.4729C106.344 53.985 106.331 55.1541 106.318 55.9801C106.318 56.7933 106.318 57.3906 106.318 57.7718C106.318 58.153 106.318 58.3818 106.318 58.458C106.318 58.5215 106.318 58.5533 106.318 58.5533C106.318 59.087 106.39 59.5064 106.533 59.8113C106.676 60.1036 106.852 60.3323 107.061 60.4975C107.282 60.65 107.516 60.758 107.764 60.8216C108.024 60.8724 108.259 60.9359 108.467 61.0122C108.689 61.0757 108.871 61.171 109.015 61.2981C109.158 61.4124 109.229 61.6094 109.229 61.889C109.229 62.6133 109.041 63.2359 108.663 63.7569C108.298 64.2652 107.757 64.6909 107.041 65.034C106.324 65.3644 105.439 65.6059 104.384 65.7583C103.341 65.9108 102.143 65.9871 100.788 65.9871C99.4724 65.9871 98.3 65.9108 97.2709 65.7583C96.2548 65.6059 95.395 65.3644 94.6916 65.034C93.9881 64.6909 93.454 64.2652 93.0893 63.7569C92.7245 63.2359 92.5422 62.6133 92.5422 61.889C92.5422 61.6094 92.5878 61.4124 92.679 61.2981C92.7832 61.171 92.9069 61.0757 93.0502 61.0122C93.1935 60.9486 93.3498 60.8914 93.5192 60.8406C93.6885 60.7898 93.8448 60.6945 93.9881 60.5547C94.1314 60.4022 94.2487 60.1925 94.3399 59.9257C94.4441 59.6461 94.4962 59.2459 94.4962 58.7249V50.5286C94.4962 49.7535 94.4441 49.061 94.3399 48.451C94.2487 47.8411 94.0924 47.3264 93.8709 46.9071C93.6494 46.4877 93.3498 46.17 92.9721 45.954C92.6073 45.7253 92.1449 45.6109 91.5847 45.6109C90.7249 45.6109 90.0997 45.8778 89.7088 46.4115C89.3311 46.9325 89.1422 47.6123 89.1422 48.451V58.4961C89.1422 59.0425 89.1943 59.4682 89.2985 59.7732C89.4027 60.0782 89.533 60.3133 89.6893 60.4785C89.8587 60.6309 90.0345 60.739 90.2169 60.8025C90.4123 60.866 90.5882 60.9359 90.7445 61.0122C90.9138 61.0757 91.0506 61.171 91.1548 61.2981C91.259 61.4124 91.3111 61.6094 91.3111 61.889C91.3111 62.6133 91.1613 63.2359 90.8617 63.7569C90.5751 64.2652 90.1192 64.6909 89.4939 65.034C88.8816 65.3644 88.087 65.6059 87.11 65.7583C86.146 65.9108 84.9801 65.9871 83.6123 65.9871C82.2966 65.9871 81.1242 65.9108 80.0951 65.7583C79.079 65.6059 78.2192 65.3644 77.5158 65.034C76.8123 64.6909 76.2782 64.2652 75.9135 63.7569C75.5487 63.2359 75.3664 62.6133 75.3664 61.889C75.3664 61.6094 75.412 61.4124 75.5032 61.2981C75.6074 61.171 75.7311 61.0757 75.8744 61.0122C76.0177 60.9486 76.174 60.8914 76.3434 60.8406C76.5258 60.7898 76.6886 60.6945 76.8319 60.5547C76.9752 60.4022 77.0924 60.1925 77.1836 59.9257C77.2878 59.6461 77.3399 59.2459 77.3399 58.7249V50.5286C77.3399 48.9784 77.1445 47.7775 76.7537 46.9261C76.3759 46.0747 75.692 45.649 74.702 45.649C74.3112 45.649 73.9399 45.7189 73.5882 45.8587C73.2365 45.9985 72.9239 46.2018 72.6503 46.4687C72.3767 46.7228 72.1618 47.0278 72.0055 47.3836C71.8491 47.7394 71.771 48.127 71.771 48.5463V58.6486C71.771 59.1696 71.8231 59.5762 71.9273 59.8685C72.0445 60.1608 72.1878 60.3832 72.3572 60.5356C72.5265 60.6754 72.7089 60.7771 72.9043 60.8406C73.1127 60.8914 73.3016 60.9486 73.471 61.0122C73.6403 61.0757 73.7771 61.171 73.8813 61.2981C73.9986 61.4124 74.0572 61.6094 74.0572 61.889C74.0572 63.3376 73.3147 64.386 71.8296 65.034C70.3576 65.6694 68.2342 65.9871 65.4595 65.9871C64.1178 65.9871 62.9193 65.9108 61.8641 65.7583C60.809 65.6059 59.9166 65.3644 59.1871 65.034C58.4707 64.6909 57.917 64.2652 57.5262 63.7569C57.1484 63.2359 56.9595 62.6133 56.9595 61.889C56.9595 61.6094 57.0312 61.4124 57.1745 61.2981C57.3178 61.171 57.4936 61.0757 57.7021 61.0122C57.9105 60.9486 58.1385 60.8914 58.386 60.8406C58.6335 60.7898 58.8615 60.6945 59.0699 60.5547C59.2783 60.4022 59.4542 60.1925 59.5975 59.9257C59.7408 59.6461 59.8124 59.2459 59.8124 58.7249V48.5463C59.8124 48.038 59.7408 47.6441 59.5975 47.3645C59.4542 47.085 59.2783 46.8753 59.0699 46.7355C58.8615 46.583 58.6335 46.4814 58.386 46.4305C58.1385 46.3797 57.9105 46.3225 57.7021 46.259C57.4936 46.1955 57.3178 46.1065 57.1745 45.9921C57.0312 45.8651 56.9595 45.6617 56.9595 45.3822C56.9595 44.6579 57.1484 44.0416 57.5262 43.5333C57.904 43.0123 58.4511 42.5866 59.1676 42.2562C59.8971 41.9131 60.7829 41.6653 61.825 41.5128C62.8672 41.3603 64.0461 41.2841 65.3618 41.2841C65.961 41.2841 66.5017 41.3159 66.9837 41.3794C67.4656 41.4302 67.889 41.5065 68.2538 41.6081C68.6315 41.6971 68.9572 41.8051 69.2308 41.9322C69.5043 42.0465 69.7388 42.1672 69.9342 42.2943C70.3901 42.5993 70.7093 42.936 70.8917 43.3045C71.53 42.8344 72.2986 42.4087 73.1974 42.0275C73.966 41.6971 74.9039 41.3984 76.0112 41.1316C77.1185 40.8647 78.4146 40.7313 79.8997 40.7313C81.4368 40.7313 82.7981 40.9473 83.9836 41.3794C85.169 41.7987 86.1135 42.3642 86.8169 43.0758Z" fill="black"/>
<path d="M140.748 43.0758C140.969 42.936 141.256 42.7391 141.607 42.4849C141.972 42.2181 142.506 41.9576 143.21 41.7034C143.913 41.4366 144.845 41.2078 146.004 41.0172C147.163 40.8266 148.655 40.7313 150.479 40.7313C151.847 40.7313 153.038 40.8902 154.055 41.2078C155.071 41.5255 155.937 41.9576 156.653 42.504C157.383 43.0504 157.982 43.6985 158.451 44.4482C158.92 45.1852 159.291 45.9858 159.565 46.8499C159.838 47.7013 160.027 48.5908 160.132 49.5184C160.236 50.446 160.288 51.3673 160.288 52.2823V52.4729C160.275 53.985 160.262 55.1541 160.249 55.9801C160.249 56.7933 160.249 57.3906 160.249 57.7718C160.249 58.153 160.249 58.3818 160.249 58.458C160.249 58.5215 160.249 58.5533 160.249 58.5533C160.249 59.087 160.32 59.5064 160.464 59.8113C160.607 60.1036 160.783 60.3323 160.991 60.4975C161.213 60.65 161.447 60.758 161.695 60.8216C161.955 60.8724 162.19 60.9359 162.398 61.0122C162.62 61.0757 162.802 61.171 162.945 61.2981C163.089 61.4124 163.16 61.6094 163.16 61.889C163.16 62.6133 162.971 63.2359 162.594 63.7569C162.229 64.2652 161.688 64.6909 160.972 65.034C160.255 65.3644 159.369 65.6059 158.314 65.7583C157.272 65.9108 156.074 65.9871 154.719 65.9871C153.403 65.9871 152.231 65.9108 151.202 65.7583C150.186 65.6059 149.326 65.3644 148.622 65.034C147.919 64.6909 147.385 64.2652 147.02 63.7569C146.655 63.2359 146.473 62.6133 146.473 61.889C146.473 61.6094 146.519 61.4124 146.61 61.2981C146.714 61.171 146.838 61.0757 146.981 61.0122C147.124 60.9486 147.281 60.8914 147.45 60.8406C147.619 60.7898 147.776 60.6945 147.919 60.5547C148.062 60.4022 148.18 60.1925 148.271 59.9257C148.375 59.6461 148.427 59.2459 148.427 58.7249V50.5286C148.427 49.7535 148.375 49.061 148.271 48.451C148.18 47.8411 148.023 47.3264 147.802 46.9071C147.58 46.4877 147.281 46.17 146.903 45.954C146.538 45.7253 146.076 45.6109 145.516 45.6109C144.656 45.6109 144.03 45.8778 143.64 46.4115C143.262 46.9325 143.073 47.6123 143.073 48.451V58.4961C143.073 59.0425 143.125 59.4682 143.229 59.7732C143.334 60.0782 143.464 60.3133 143.62 60.4785C143.789 60.6309 143.965 60.739 144.148 60.8025C144.343 60.866 144.519 60.9359 144.675 61.0122C144.845 61.0757 144.981 61.171 145.086 61.2981C145.19 61.4124 145.242 61.6094 145.242 61.889C145.242 62.6133 145.092 63.2359 144.793 63.7569C144.506 64.2652 144.05 64.6909 143.425 65.034C142.812 65.3644 142.018 65.6059 141.041 65.7583C140.077 65.9108 138.911 65.9871 137.543 65.9871C136.227 65.9871 135.055 65.9108 134.026 65.7583C133.01 65.6059 132.15 65.3644 131.447 65.034C130.743 64.6909 130.209 64.2652 129.844 63.7569C129.48 63.2359 129.297 62.6133 129.297 61.889C129.297 61.6094 129.343 61.4124 129.434 61.2981C129.538 61.171 129.662 61.0757 129.805 61.0122C129.949 60.9486 130.105 60.8914 130.274 60.8406C130.457 60.7898 130.619 60.6945 130.763 60.5547C130.906 60.4022 131.023 60.1925 131.114 59.9257C131.219 59.6461 131.271 59.2459 131.271 58.7249V50.5286C131.271 48.9784 131.075 47.7775 130.685 46.9261C130.307 46.0747 129.623 45.649 128.633 45.649C128.242 45.649 127.871 45.7189 127.519 45.8587C127.167 45.9985 126.855 46.2018 126.581 46.4687C126.308 46.7228 126.093 47.0278 125.936 47.3836C125.78 47.7394 125.702 48.127 125.702 48.5463V58.6486C125.702 59.1696 125.754 59.5762 125.858 59.8685C125.975 60.1608 126.119 60.3832 126.288 60.5356C126.457 60.6754 126.64 60.7771 126.835 60.8406C127.044 60.8914 127.232 60.9486 127.402 61.0122C127.571 61.0757 127.708 61.171 127.812 61.2981C127.929 61.4124 127.988 61.6094 127.988 61.889C127.988 63.3376 127.245 64.386 125.76 65.034C124.288 65.6694 122.165 65.9871 119.39 65.9871C118.049 65.9871 116.85 65.9108 115.795 65.7583C114.74 65.6059 113.847 65.3644 113.118 65.034C112.401 64.6909 111.848 64.2652 111.457 63.7569C111.079 63.2359 110.89 62.6133 110.89 61.889C110.89 61.6094 110.962 61.4124 111.105 61.2981C111.249 61.171 111.424 61.0757 111.633 61.0122C111.841 60.9486 112.069 60.8914 112.317 60.8406C112.564 60.7898 112.792 60.6945 113.001 60.5547C113.209 60.4022 113.385 60.1925 113.528 59.9257C113.672 59.6461 113.743 59.2459 113.743 58.7249V48.5463C113.743 48.038 113.672 47.6441 113.528 47.3645C113.385 47.085 113.209 46.8753 113.001 46.7355C112.792 46.583 112.564 46.4814 112.317 46.4305C112.069 46.3797 111.841 46.3225 111.633 46.259C111.424 46.1955 111.249 46.1065 111.105 45.9921C110.962 45.8651 110.89 45.6617 110.89 45.3822C110.89 44.6579 111.079 44.0416 111.457 43.5333C111.835 43.0123 112.382 42.5866 113.098 42.2562C113.828 41.9131 114.714 41.6653 115.756 41.5128C116.798 41.3603 117.977 41.2841 119.293 41.2841C119.892 41.2841 120.432 41.3159 120.914 41.3794C121.396 41.4302 121.82 41.5065 122.185 41.6081C122.562 41.6971 122.888 41.8051 123.162 41.9322C123.435 42.0465 123.67 42.1672 123.865 42.2943C124.321 42.5993 124.64 42.936 124.823 43.3045C125.461 42.8344 126.229 42.4087 127.128 42.0275C127.897 41.6971 128.835 41.3984 129.942 41.1316C131.049 40.8647 132.345 40.7313 133.831 40.7313C135.368 40.7313 136.729 40.9473 137.914 41.3794C139.1 41.7987 140.044 42.3642 140.748 43.0758Z" fill="black"/>
<path d="M185.631 48.6225C185.631 48.1015 185.56 47.6949 185.417 47.4026C185.273 47.1104 185.091 46.8944 184.869 46.7546C184.661 46.6021 184.433 46.5004 184.186 46.4496C183.938 46.3861 183.704 46.3225 183.482 46.259C183.274 46.1955 183.098 46.1065 182.954 45.9921C182.811 45.8651 182.74 45.6617 182.74 45.3822C182.74 43.9336 183.508 42.8916 185.045 42.2562C186.582 41.6081 188.803 41.2841 191.708 41.2841C192.685 41.2841 193.506 41.373 194.171 41.5509C194.835 41.7288 195.382 41.9766 195.812 42.2943C196.255 42.612 196.593 42.9932 196.828 43.438C197.075 43.8827 197.251 44.3783 197.356 44.9247C197.473 45.4584 197.538 46.0303 197.551 46.6402C197.577 47.2502 197.59 47.8855 197.59 48.5463V58.763C197.59 59.2713 197.655 59.6652 197.785 59.9448C197.929 60.2243 198.105 60.4403 198.313 60.5928C198.534 60.7326 198.762 60.8279 198.997 60.8787C199.244 60.9296 199.472 60.9868 199.681 61.0503C199.902 61.1138 200.078 61.2091 200.208 61.3362C200.352 61.4506 200.423 61.6475 200.423 61.9271C200.423 63.3757 199.668 64.4241 198.157 65.0722C196.659 65.7075 194.509 66.0252 191.708 66.0252C191.018 66.0252 190.406 65.9744 189.872 65.8727C189.338 65.7711 188.869 65.6376 188.465 65.4724C188.074 65.3072 187.735 65.123 187.449 64.9197C187.162 64.7036 186.921 64.4813 186.726 64.2525C186.27 63.7442 185.983 63.1533 185.866 62.4799C185.189 63.2296 184.387 63.8967 183.463 64.4813C183.072 64.7354 182.629 64.9832 182.134 65.2246C181.639 65.4534 181.098 65.663 180.512 65.8536C179.926 66.0316 179.287 66.1777 178.597 66.292C177.92 66.4064 177.197 66.4636 176.428 66.4636C174.995 66.4636 173.758 66.292 172.715 65.949C171.673 65.5931 170.787 65.123 170.058 64.5384C169.341 63.9539 168.762 63.2741 168.319 62.4989C167.876 61.7238 167.531 60.9105 167.283 60.0591C167.036 59.2077 166.866 58.35 166.775 57.4859C166.697 56.6091 166.658 55.7768 166.658 54.9889V48.7179C166.658 48.1841 166.586 47.7712 166.443 47.4789C166.3 47.1739 166.117 46.9452 165.896 46.7927C165.674 46.6275 165.44 46.5195 165.192 46.4687C164.945 46.4051 164.71 46.3416 164.489 46.2781C164.268 46.2018 164.085 46.1065 163.942 45.9921C163.799 45.8651 163.727 45.6617 163.727 45.3822C163.727 43.9336 164.496 42.8916 166.033 42.2562C167.57 41.6081 169.791 41.2841 172.696 41.2841C173.986 41.2841 175.015 41.4366 175.783 41.7415C176.552 42.0465 177.138 42.4659 177.542 42.9996C177.946 43.5206 178.206 44.1432 178.323 44.8675C178.441 45.5919 178.499 46.3734 178.499 47.212V56.6281C178.499 57.416 178.558 58.1213 178.675 58.7439C178.805 59.3539 179.014 59.8749 179.3 60.3069C179.6 60.739 179.991 61.0693 180.473 61.2981C180.955 61.5141 181.554 61.6221 182.271 61.6221C182.726 61.6221 183.156 61.5522 183.56 61.4124C183.964 61.2727 184.316 61.0757 184.615 60.8216C184.915 60.5674 185.149 60.2688 185.319 59.9257C185.501 59.5699 185.592 59.1823 185.592 58.763L185.631 48.6225Z" fill="black"/>
<path d="M216.954 58.6486C216.954 59.1696 217.026 59.5762 217.169 59.8685C217.313 60.1608 217.488 60.3832 217.697 60.5356C217.918 60.6754 218.153 60.7771 218.4 60.8406C218.648 60.8914 218.876 60.9486 219.084 61.0122C219.306 61.0757 219.488 61.171 219.631 61.2981C219.775 61.4124 219.846 61.6094 219.846 61.889C219.846 63.3376 219.078 64.386 217.541 65.034C216.003 65.6694 213.782 65.9871 210.877 65.9871C209.47 65.9871 208.226 65.9108 207.145 65.7583C206.064 65.6059 205.152 65.3644 204.41 65.034C203.667 64.6909 203.1 64.2652 202.71 63.7569C202.332 63.2359 202.143 62.6133 202.143 61.889C202.143 61.6094 202.215 61.4124 202.358 61.2981C202.501 61.171 202.677 61.0757 202.885 61.0122C203.094 60.9486 203.322 60.8914 203.569 60.8406C203.817 60.7898 204.045 60.6945 204.253 60.5547C204.462 60.4022 204.638 60.1925 204.781 59.9257C204.924 59.6461 204.996 59.2459 204.996 58.7249V48.5463C204.996 48.038 204.924 47.6441 204.781 47.3645C204.638 47.085 204.462 46.8753 204.253 46.7355C204.045 46.583 203.817 46.4814 203.569 46.4305C203.322 46.3797 203.094 46.3225 202.885 46.259C202.677 46.1955 202.501 46.1065 202.358 45.9921C202.215 45.8651 202.143 45.6617 202.143 45.3822C202.143 44.6579 202.332 44.0416 202.71 43.5333C203.1 43.0123 203.667 42.5866 204.41 42.2562C205.152 41.9131 206.064 41.6653 207.145 41.5128C208.226 41.3603 209.47 41.2841 210.877 41.2841C212.154 41.2841 213.17 41.3921 213.926 41.6081C214.681 41.8114 215.267 42.0402 215.684 42.2943C216.166 42.5993 216.498 42.936 216.681 43.3045C217.358 42.8344 218.166 42.4087 219.104 42.0275C219.911 41.6971 220.895 41.3984 222.054 41.1316C223.227 40.8647 224.595 40.7313 226.158 40.7313C227.591 40.7313 228.822 40.9092 229.851 41.265C230.893 41.6081 231.772 42.0783 232.489 42.6755C233.218 43.2601 233.804 43.9463 234.247 44.7341C234.69 45.5093 235.029 46.3225 235.263 47.1739C235.511 48.0253 235.674 48.8894 235.752 49.7662C235.843 50.6303 235.889 51.4563 235.889 52.2441V58.5533C235.889 59.087 235.96 59.5064 236.104 59.8113C236.247 60.1036 236.429 60.3323 236.651 60.4975C236.872 60.65 237.107 60.758 237.354 60.8216C237.615 60.8724 237.856 60.9359 238.077 61.0122C238.299 61.0757 238.481 61.171 238.624 61.2981C238.768 61.4124 238.839 61.6094 238.839 61.889C238.839 63.3376 238.071 64.386 236.534 65.034C235.009 65.6694 232.795 65.9871 229.89 65.9871C228.483 65.9871 227.239 65.9108 226.158 65.7583C225.077 65.6059 224.165 65.3644 223.422 65.034C222.68 64.6909 222.113 64.2652 221.722 63.7569C221.344 63.2359 221.155 62.6133 221.155 61.889C221.155 61.6094 221.227 61.4124 221.37 61.2981C221.514 61.171 221.696 61.0757 221.918 61.0122C222.139 60.9486 222.373 60.8914 222.621 60.8406C222.868 60.7898 223.103 60.6945 223.324 60.5547C223.546 60.4022 223.728 60.1925 223.872 59.9257C224.015 59.6461 224.086 59.2459 224.086 58.7249V50.5858C224.086 49.798 224.021 49.0991 223.891 48.4891C223.774 47.8665 223.565 47.3455 223.266 46.9261C222.979 46.4941 222.595 46.17 222.113 45.954C221.631 45.7253 221.032 45.6109 220.315 45.6109C219.859 45.6109 219.429 45.6872 219.026 45.8396C218.622 45.9794 218.27 46.1827 217.97 46.4496C217.671 46.7037 217.43 47.0151 217.247 47.3836C217.078 47.7394 216.993 48.127 216.993 48.5463L216.954 58.6486Z" fill="black"/>
<path d="M243.334 34.7271C243.334 34.0918 243.444 33.539 243.666 33.0688C243.9 32.5859 244.193 32.1729 244.545 31.8299C244.91 31.474 245.32 31.1818 245.776 30.953C246.245 30.7116 246.714 30.521 247.183 30.3812C247.652 30.2414 248.101 30.1461 248.531 30.0953C248.974 30.0318 249.358 30 249.684 30C250.036 30 250.433 30.0318 250.876 30.0953C251.332 30.1461 251.794 30.2414 252.263 30.3812C252.732 30.521 253.195 30.7116 253.651 30.953C254.107 31.1818 254.511 31.474 254.862 31.8299C255.227 32.1729 255.514 32.5859 255.722 33.0688C255.943 33.539 256.054 34.0918 256.054 34.7271C256.054 35.3498 255.943 35.9025 255.722 36.3854C255.514 36.8683 255.227 37.2813 254.862 37.6244C254.511 37.9675 254.107 38.2597 253.651 38.5012C253.195 38.7299 252.732 38.9142 252.263 39.054C251.794 39.1937 251.332 39.2954 250.876 39.3589C250.433 39.4098 250.036 39.4352 249.684 39.4352C249.358 39.4352 248.974 39.4098 248.531 39.3589C248.101 39.2954 247.652 39.1937 247.183 39.054C246.714 38.9142 246.245 38.7299 245.776 38.5012C245.32 38.2597 244.91 37.9675 244.545 37.6244C244.193 37.2813 243.9 36.8746 243.666 36.4045C243.444 35.9216 243.334 35.3625 243.334 34.7271ZM255.448 58.7249C255.448 59.2331 255.52 59.6271 255.663 59.9066C255.807 60.1862 255.983 60.4022 256.191 60.5547C256.412 60.6945 256.647 60.7898 256.894 60.8406C257.142 60.8914 257.37 60.9486 257.578 61.0122C257.8 61.0757 257.982 61.171 258.125 61.2981C258.269 61.4124 258.34 61.6094 258.34 61.889C258.34 63.3376 257.572 64.386 256.035 65.034C254.497 65.6694 252.276 65.9871 249.371 65.9871C247.965 65.9871 246.721 65.9108 245.639 65.7583C244.558 65.6059 243.646 65.3644 242.904 65.034C242.161 64.6909 241.594 64.2652 241.204 63.7569C240.826 63.2359 240.637 62.6133 240.637 61.889C240.637 61.6094 240.709 61.4124 240.852 61.2981C240.995 61.171 241.171 61.0757 241.38 61.0122C241.588 60.9486 241.816 60.8914 242.063 60.8406C242.311 60.7898 242.539 60.6945 242.747 60.5547C242.956 60.4022 243.132 60.1925 243.275 59.9257C243.418 59.6461 243.49 59.2459 243.49 58.7249V48.5463C243.49 48.038 243.418 47.6441 243.275 47.3645C243.132 47.085 242.956 46.8753 242.747 46.7355C242.539 46.583 242.311 46.4814 242.063 46.4305C241.816 46.3797 241.588 46.3225 241.38 46.259C241.171 46.1955 240.995 46.1065 240.852 45.9921C240.709 45.8651 240.637 45.6617 240.637 45.3822C240.637 44.6579 240.826 44.0416 241.204 43.5333C241.594 43.0123 242.161 42.5866 242.904 42.2562C243.646 41.9131 244.558 41.6653 245.639 41.5128C246.721 41.3603 247.965 41.2841 249.371 41.2841C250.778 41.2841 251.886 41.354 252.693 41.4938C253.501 41.6335 254.107 41.875 254.511 42.2181C254.927 42.5485 255.188 42.9996 255.292 43.5714C255.396 44.1432 255.448 44.8612 255.448 45.7253V58.7249Z" fill="black"/>
<path d="M273.992 56.4947C273.992 56.9141 274.005 57.3207 274.031 57.7146C274.057 58.0958 274.135 58.4389 274.266 58.7439C274.396 59.0489 274.598 59.2903 274.871 59.4682C275.145 59.6461 275.523 59.7351 276.005 59.7351C276.682 59.7351 277.268 59.6525 277.763 59.4873C278.271 59.3094 278.792 59.0807 279.327 58.8011C279.535 58.6867 279.73 58.6295 279.913 58.6295C280.212 58.6295 280.447 58.7566 280.616 59.0108C280.799 59.2649 280.89 59.5508 280.89 59.8685C280.89 60.0845 280.857 60.2624 280.792 60.4022C280.414 61.3426 279.926 62.1876 279.327 62.9373C278.74 63.6871 278.056 64.3224 277.275 64.8434C276.506 65.3644 275.659 65.7647 274.735 66.0443C273.81 66.3238 272.82 66.4636 271.764 66.4636C270.305 66.4636 269.055 66.2857 268.013 65.9299C266.971 65.5614 266.091 65.0785 265.375 64.4813C264.658 63.8713 264.085 63.1724 263.655 62.3846C263.225 61.584 262.893 60.7517 262.659 59.8876C262.437 59.0108 262.287 58.134 262.209 57.2572C262.144 56.3676 262.112 55.529 262.112 54.7411V45.0963H261.154C260.672 45.0963 260.294 44.9628 260.021 44.696C259.747 44.4164 259.611 44.1115 259.611 43.7811C259.611 43.3871 259.793 43.0568 260.158 42.7899C261.682 41.7225 263.076 40.6932 264.339 39.702C265.603 38.6981 266.691 37.8023 267.602 37.0144C268.671 36.0995 269.628 35.2418 270.475 34.4412C270.814 34.1108 271.159 33.8694 271.51 33.7169C271.862 33.5517 272.201 33.4691 272.527 33.4691C272.93 33.4691 273.269 33.6025 273.543 33.8694C273.816 34.1362 273.953 34.5492 273.953 35.1083V41.2841H278.721C278.877 41.2841 279.059 41.2968 279.268 41.3222C279.489 41.3349 279.698 41.3984 279.893 41.5128C280.089 41.6272 280.251 41.8114 280.382 42.0656C280.525 42.307 280.597 42.6565 280.597 43.1139C280.597 43.6095 280.531 43.9907 280.401 44.2576C280.271 44.5244 280.108 44.7214 279.913 44.8485C279.717 44.9756 279.509 45.0518 279.287 45.0772C279.079 45.0899 278.89 45.0963 278.721 45.0963H273.953L273.992 56.4947Z" fill="black"/>
<path d="M284.993 34.7271C284.993 34.0918 285.104 33.539 285.325 33.0688C285.56 32.5859 285.853 32.1729 286.205 31.8299C286.569 31.474 286.98 31.1818 287.436 30.953C287.905 30.7116 288.374 30.521 288.843 30.3812C289.312 30.2414 289.761 30.1461 290.191 30.0953C290.634 30.0318 291.018 30 291.344 30C291.695 30 292.093 30.0318 292.536 30.0953C292.992 30.1461 293.454 30.2414 293.923 30.3812C294.392 30.521 294.854 30.7116 295.31 30.953C295.766 31.1818 296.17 31.474 296.522 31.8299C296.887 32.1729 297.173 32.5859 297.382 33.0688C297.603 33.539 297.714 34.0918 297.714 34.7271C297.714 35.3498 297.603 35.9025 297.382 36.3854C297.173 36.8683 296.887 37.2813 296.522 37.6244C296.17 37.9675 295.766 38.2597 295.31 38.5012C294.854 38.7299 294.392 38.9142 293.923 39.054C293.454 39.1937 292.992 39.2954 292.536 39.3589C292.093 39.4098 291.695 39.4352 291.344 39.4352C291.018 39.4352 290.634 39.4098 290.191 39.3589C289.761 39.2954 289.312 39.1937 288.843 39.054C288.374 38.9142 287.905 38.7299 287.436 38.5012C286.98 38.2597 286.569 37.9675 286.205 37.6244C285.853 37.2813 285.56 36.8746 285.325 36.4045C285.104 35.9216 284.993 35.3625 284.993 34.7271ZM297.108 58.7249C297.108 59.2331 297.18 59.6271 297.323 59.9066C297.466 60.1862 297.642 60.4022 297.851 60.5547C298.072 60.6945 298.307 60.7898 298.554 60.8406C298.802 60.8914 299.029 60.9486 299.238 61.0122C299.459 61.0757 299.642 61.171 299.785 61.2981C299.928 61.4124 300 61.6094 300 61.889C300 63.3376 299.231 64.386 297.694 65.034C296.157 65.6694 293.936 65.9871 291.031 65.9871C289.624 65.9871 288.38 65.9108 287.299 65.7583C286.218 65.6059 285.306 65.3644 284.563 65.034C283.821 64.6909 283.254 64.2652 282.863 63.7569C282.486 63.2359 282.297 62.6133 282.297 61.889C282.297 61.6094 282.368 61.4124 282.512 61.2981C282.655 61.171 282.831 61.0757 283.039 61.0122C283.248 60.9486 283.476 60.8914 283.723 60.8406C283.971 60.7898 284.199 60.6945 284.407 60.5547C284.615 60.4022 284.791 60.1925 284.935 59.9257C285.078 59.6461 285.149 59.2459 285.149 58.7249V48.5463C285.149 48.038 285.078 47.6441 284.935 47.3645C284.791 47.085 284.615 46.8753 284.407 46.7355C284.199 46.583 283.971 46.4814 283.723 46.4305C283.476 46.3797 283.248 46.3225 283.039 46.259C282.831 46.1955 282.655 46.1065 282.512 45.9921C282.368 45.8651 282.297 45.6617 282.297 45.3822C282.297 44.6579 282.486 44.0416 282.863 43.5333C283.254 43.0123 283.821 42.5866 284.563 42.2562C285.306 41.9131 286.218 41.6653 287.299 41.5128C288.38 41.3603 289.624 41.2841 291.031 41.2841C292.438 41.2841 293.545 41.354 294.353 41.4938C295.161 41.6335 295.766 41.875 296.17 42.2181C296.587 42.5485 296.848 42.9996 296.952 43.5714C297.056 44.1432 297.108 44.8612 297.108 45.7253V58.7249Z" fill="black"/>
<path d="M40.9864 67.1676C49.8977 67.1676 57.1228 61.0012 57.1228 53.3945C57.1228 45.7879 49.8977 39.6215 40.9864 39.6215C32.0751 39.6215 24.85 45.7879 24.85 53.3945C24.85 56.8575 26.3487 60.0253 28.8236 62.4454C28.628 64.4445 27.9825 66.6364 27.2685 68.2813C27.1091 68.6472 27.4177 69.0565 27.8191 68.9935C32.3696 68.2655 35.0745 67.148 36.2504 66.5655C37.7953 66.9675 39.3875 67.1699 40.9864 67.1676Z" fill="#0099FF"/>
</svg>
