<svg width="46" height="46" viewBox="0 0 46 46" fill="none" xmlns="http://www.w3.org/2000/svg">
<path d="M25.1135 22.9987L34.5566 13.5695C34.8389 13.2873 34.9974 12.9044 34.9974 12.5052C34.9974 12.106 34.8389 11.7231 34.5566 11.4409C34.2744 11.1586 33.8916 11 33.4924 11C33.0932 11 32.7104 11.1586 32.4282 11.4409L23 20.885L13.5718 11.4409C13.2896 11.1586 12.9068 11 12.5076 11C12.1084 11 11.7256 11.1586 11.4434 11.4409C11.1611 11.7231 11.0026 12.106 11.0026 12.5052C11.0026 12.9044 11.1611 13.2873 11.4434 13.5695L20.8865 22.9987L11.4434 32.4279C11.3029 32.5673 11.1914 32.733 11.1153 32.9157C11.0392 33.0984 11 33.2943 11 33.4922C11 33.6901 11.0392 33.8861 11.1153 34.0687C11.1914 34.2514 11.3029 34.4172 11.4434 34.5566C11.5827 34.6971 11.7485 34.8086 11.9312 34.8847C12.1138 34.9608 12.3097 35 12.5076 35C12.7055 35 12.9014 34.9608 13.0841 34.8847C13.2667 34.8086 13.4325 34.6971 13.5718 34.5566L23 25.1124L32.4282 34.5566C32.5675 34.6971 32.7333 34.8086 32.9159 34.8847C33.0986 34.9608 33.2945 35 33.4924 35C33.6903 35 33.8862 34.9608 34.0688 34.8847C34.2515 34.8086 34.4173 34.6971 34.5566 34.5566C34.6971 34.4172 34.8086 34.2514 34.8847 34.0687C34.9608 33.8861 35 33.6901 35 33.4922C35 33.2943 34.9608 33.0984 34.8847 32.9157C34.8086 32.733 34.6971 32.5673 34.5566 32.4279L25.1135 22.9987Z" fill="#6B7280"/>
</svg>
