<svg width="57" height="56" viewBox="0 0 57 56" fill="none" xmlns="http://www.w3.org/2000/svg">
<path d="M35.6776 41.6803C35.5411 41.3672 28.1261 36.956 28.1176 36.9502C27.0717 36.1811 26.9443 35.4328 27.788 35.003C28.5117 34.6355 29.1341 33.4509 29.6035 32.1832C29.6893 32.2211 29.7789 32.2291 29.8707 32.203C31.8403 31.627 31.8755 27.652 30.5581 28.3539C31.7896 17.6099 16.9144 17.6045 18.1459 28.3544C16.8269 27.6509 16.8632 31.627 18.8323 32.203C18.9235 32.2291 19.0141 32.2211 19.1 32.1838C19.5688 33.451 20.1901 34.6355 20.9139 35.003C21.7645 35.436 21.5965 36.1475 20.5635 36.9667C20.2189 37.2403 15.4184 39.9166 14.0632 40.8222C14.0605 40.8227 14.0557 40.8259 14.0557 40.8259H14.0573C13.4979 41.2008 13.1 41.5123 13.0259 41.6808C12.6397 42.571 12.5 44.0003 12.5 44.0003H36.2035C36.2035 44.0003 36.0648 42.571 35.6776 41.6803Z" fill="black"/>
<path d="M29.8575 21.5288C30.8255 22.6147 31.8911 24.4845 31.8138 27.4109C32.1892 27.692 32.5028 28.1731 32.6095 28.9187C32.8058 30.2957 32.2452 32.5518 30.4548 33.2542C29.97 34.3982 29.4404 35.2056 28.8522 35.7022H44.5007C44.5007 35.7022 44.361 34.2728 43.9748 33.3822C43.8383 33.0696 36.4234 28.6584 36.4154 28.652C35.3684 27.8835 35.2415 27.1352 36.0852 26.7053C36.809 26.3373 37.4308 25.1533 37.9007 23.8856C37.986 23.9229 38.0767 23.9315 38.1679 23.9043C40.137 23.3293 40.1727 19.3544 38.8554 20.0563C40.0612 9.53894 25.8426 9.31868 26.3956 19.3971C27.7311 19.7704 28.938 20.4984 29.8575 21.5288Z" fill="black"/>
</svg>
