<svg width="56" height="56" viewBox="0 0 56 56" fill="none" xmlns="http://www.w3.org/2000/svg">
<path d="M12 38.7033C12 41.3027 14.08 43.2904 16.8 43.2904H39.2C41.92 43.2904 44 41.3027 44 38.7033V26.471H12V38.7033ZM39.2 15.7678H36V14.2388C36 13.3213 35.36 12.7097 34.4 12.7097C33.44 12.7097 32.8 13.3213 32.8 14.2388V15.7678H23.2V14.2388C23.2 13.3213 22.56 12.7097 21.6 12.7097C20.64 12.7097 20 13.3213 20 14.2388V15.7678H16.8C14.08 15.7678 12 17.7555 12 20.3549V23.413H44V20.3549C44 17.7555 41.92 15.7678 39.2 15.7678Z" fill="black"/>
</svg>
