<svg width="49" height="54" viewBox="0 0 49 54" fill="none" xmlns="http://www.w3.org/2000/svg">
<path d="M24.502 42C26.3148 42 27.7979 40.6154 27.7979 38.9231H21.2062C21.2062 40.6154 22.6728 42 24.502 42ZM34.3897 32.7692V25.0769C34.3897 20.3538 31.687 16.4 26.9739 15.3538V14.3077C26.9739 13.0308 25.8698 12 24.502 12C23.1342 12 22.0301 13.0308 22.0301 14.3077V15.3538C17.3005 16.4 14.6144 20.3385 14.6144 25.0769V32.7692L12.4886 34.7538C11.4504 35.7231 12.1755 37.3846 13.6421 37.3846H35.3455C36.8121 37.3846 37.5537 35.7231 36.5155 34.7538L34.3897 32.7692Z" fill="black"/>
</svg>
