<svg width="44" height="44" viewBox="0 0 44 44" fill="none" xmlns="http://www.w3.org/2000/svg">
<rect width="44" height="44" rx="22" fill="#FFD22F"/>
<path d="M22.405 33.0134L32.0233 22.8712C32.4326 22.4667 32.7542 22 33.0465 21.5023C34.6252 18.7334 34.2159 15.1867 32.0233 12.8845C30.7662 11.5467 29.0706 10.8 27.2873 10.8C24.4807 10.8 22.7266 12.5423 21.9957 13.5378C21.2649 12.5423 19.5108 10.8 16.7042 10.8C14.9209 10.8 13.2253 11.5467 11.9681 12.8845C9.80476 15.1867 9.36624 18.7334 10.9449 21.5023C11.2373 22 11.5589 22.4667 11.9681 22.8712L21.5864 33.0134C21.8203 33.2623 22.1711 33.2623 22.405 33.0134ZM27.2873 12.0445C28.7782 12.0445 30.1523 12.6667 31.2047 13.7556C32.9881 15.6534 33.3389 18.5778 32.0525 20.8489C31.8187 21.2534 31.5263 21.6578 31.2047 22L21.9957 31.7067L12.7867 22C12.4651 21.6578 12.1728 21.2845 11.9389 20.8489C10.6526 18.5467 10.9742 15.6223 12.7867 13.7556C13.8392 12.6667 15.2425 12.0445 16.7042 12.0445C18.8091 12.0445 20.5632 13.2578 21.4987 14.9378C21.7326 15.3423 22.2881 15.3423 22.522 14.9378C23.4282 13.2578 25.1823 12.0445 27.2873 12.0445Z" fill="black"/>
</svg>
