<svg width="56" height="58" viewBox="0 0 56 58" fill="none" xmlns="http://www.w3.org/2000/svg">
<path d="M25.8271 24.9546H27.3874V28.4335H25.8271V24.9546Z" fill="black"/>
<path d="M21.3745 24.3112C22.3822 24.844 23.4657 25.2265 24.5879 25.4466V24.9063C24.591 24.2612 25.125 23.7406 25.7829 23.7406H27.436C28.0923 23.7406 28.6232 24.2627 28.6248 24.9063V25.6105C30.0504 25.4284 31.4295 24.9882 32.6912 24.3112C33.5162 23.8756 40.5204 20.1264 41.1489 19.7941V19.0914C41.1473 17.8513 40.1227 16.8465 38.858 16.845H32.6788V14.0096C32.6757 12.9016 31.7609 12.003 30.6294 12H22.545C21.4135 12.0015 20.4971 12.9001 20.4956 14.0096V16.845H14.3104C13.6402 16.8541 13.0071 17.1455 12.569 17.6419C12.131 18.1397 11.9313 18.797 12.0211 19.4496C12.4947 19.7 20.6272 23.9196 21.3745 24.3112ZM21.7336 14.0095C21.7352 13.5709 22.0974 13.2157 22.5447 13.2142H30.6291C31.0765 13.2157 31.4387 13.5709 31.4402 14.0095V16.8449H21.7335L21.7336 14.0095Z" fill="black"/>
<path d="M38.7842 39.7611C40.4001 38.7199 41.4682 37.0336 41.705 35.1516C41.9418 33.2679 41.3242 31.3782 40.0163 29.9816C36.498 26.1946 29.7972 27.9477 28.7677 33.0356C27.5279 38.5711 33.9673 42.912 38.7842 39.7611Z" fill="black"/>
<path d="M27.5532 32.7867C28.6119 27.3681 35.497 24.8696 39.9101 28.2633C40.3651 28.5958 40.78 28.9752 41.1484 29.3987V21.184C40.5045 21.5285 34.1116 24.9376 33.285 25.3794C31.8424 26.155 30.259 26.6483 28.6243 26.8304V28.4758C28.6243 28.7854 28.5004 29.0844 28.2775 29.303C28.0547 29.5231 27.7513 29.6476 27.4355 29.6476H25.7824C25.1214 29.6476 24.5874 29.1224 24.5874 28.4758V26.6908C21.778 26.3402 15.8186 22.6609 13.2584 21.4634L12.0201 20.8198V35.2559L12.0186 35.2574C12.0217 36.5992 13.133 37.686 14.5013 37.686H28.1659C27.4074 36.1651 27.1926 34.441 27.5532 32.7867Z" fill="black"/>
<path d="M43.5061 41.4552L41.6548 38.6624C40.4815 40.3623 38.6612 41.528 36.6025 41.8984L38.4538 44.6791C40.6812 47.8529 45.5571 44.7201 43.5061 41.4552Z" fill="black"/>
</svg>
