<svg width="14" height="14" viewBox="0 0 14 14" fill="none" xmlns="http://www.w3.org/2000/svg">
<path id="Vector" d="M8.23286 6.99925L13.7414 1.4989C13.906 1.33424 13.9985 1.11091 13.9985 0.878038C13.9985 0.645168 13.906 0.421835 13.7414 0.257171C13.5767 0.0925073 13.3534 0 13.1206 0C12.8877 0 12.6644 0.0925073 12.4998 0.257171L7 5.76627L1.50024 0.257171C1.33559 0.0925073 1.11228 2.06752e-07 0.879436 2.08487e-07C0.646591 2.10222e-07 0.423282 0.0925073 0.258636 0.257171C0.0939896 0.421835 0.0014924 0.645168 0.0014924 0.878038C0.0014924 1.11091 0.0939896 1.33424 0.258636 1.4989L5.76714 6.99925L0.258636 12.4996C0.176683 12.5809 0.111635 12.6776 0.067245 12.7842C0.0228546 12.8907 0 13.005 0 13.1205C0 13.2359 0.0228546 13.3502 0.067245 13.4568C0.111635 13.5633 0.176683 13.66 0.258636 13.7413C0.33992 13.8233 0.436626 13.8884 0.543175 13.9327C0.649725 13.9771 0.764009 14 0.879436 14C0.994863 14 1.10915 13.9771 1.2157 13.9327C1.32225 13.8884 1.41895 13.8233 1.50024 13.7413L7 8.23224L12.4998 13.7413C12.581 13.8233 12.6778 13.8884 12.7843 13.9327C12.8909 13.9771 13.0051 14 13.1206 14C13.236 14 13.3503 13.9771 13.4568 13.9327C13.5634 13.8884 13.6601 13.8233 13.7414 13.7413C13.8233 13.66 13.8884 13.5633 13.9328 13.4568C13.9771 13.3502 14 13.2359 14 13.1205C14 13.005 13.9771 12.8907 13.9328 12.7842C13.8884 12.6776 13.8233 12.5809 13.7414 12.4996L8.23286 6.99925Z" fill="#6B7280"/>
</svg>
