<svg width="88" height="105" viewBox="0 0 88 105" fill="none" xmlns="http://www.w3.org/2000/svg">
<path d="M75.6996 104.072C72.1094 104.7 68.5191 104.727 64.9289 104.126V104.153C63.4031 104.345 61.8772 103.962 60.4112 103.525C59.6334 103.28 58.7956 102.979 58.3169 102.352C57.8083 101.669 57.8682 100.741 58.1374 99.9489L58.1973 99.867C57.7186 98.6657 57.4792 97.4371 57.4493 96.1539C57.4194 94.8707 57.5989 93.642 58.0178 92.4134L57.928 92.3861C57.8083 92.3315 57.7186 92.2769 57.6288 92.195C57.5391 92.1131 57.4493 92.0312 57.3895 91.922C57.3296 91.8128 57.2698 91.7309 57.2399 91.6217C57.21 91.5125 57.21 91.4033 57.21 91.2941C57.2399 91.0756 57.2997 90.8572 57.4194 90.6388C57.5391 90.4204 57.6887 90.2566 57.8981 90.12C58.287 89.8197 58.7059 89.6013 59.1846 89.4375C60.6805 88.8914 62.2363 88.4819 63.8519 88.2635C64.54 88.1543 65.2281 88.0724 65.8863 88.2362C66.5445 88.4273 67.1429 88.946 67.1429 89.574C67.1429 90.0381 66.8138 90.475 66.4249 90.7753L66.4847 90.8845L67.1728 93.2052C67.2027 93.3144 67.2327 93.3963 67.2925 93.4782C67.4421 93.6421 67.6814 93.6694 67.9208 93.6967C68.7884 93.8059 69.5663 94.1335 70.2245 94.6522L70.3741 94.7068C70.6134 94.3792 70.9126 94.0516 71.2118 93.7513C71.511 93.4509 71.8401 93.1779 72.1991 92.9049C72.5581 92.6592 72.9172 92.4134 73.3061 92.2223C73.695 92.0312 74.1139 91.8401 74.5328 91.7036C74.9516 91.5671 75.3705 91.4306 75.8193 91.3487C76.268 91.2667 76.6869 91.2121 77.1357 91.1848C77.5844 91.1575 78.0332 91.1575 78.482 91.2121C78.9308 91.2394 79.3795 91.3214 79.7984 91.4306C80.2472 91.5398 80.666 91.6763 81.0849 91.8128C81.5038 91.9766 81.8927 92.1677 82.2816 92.3861C82.6706 92.6046 83.0296 92.8503 83.3587 93.1233C83.6878 93.3963 84.0169 93.6694 84.3161 93.997C84.6153 94.2973 84.8846 94.6249 85.094 94.9799C85.3333 95.3348 85.5428 95.6897 85.7223 96.072C85.9018 96.4542 86.0514 96.8364 86.1411 97.246C86.2608 97.6555 86.3206 98.0377 86.3805 98.4473L86.4702 98.5019C86.5301 98.693 86.5899 98.8841 86.6198 99.0752C86.6497 99.2663 86.6198 99.4574 86.5899 99.6486C86.56 99.8397 86.4702 100.031 86.3805 100.195C86.2907 100.358 86.171 100.522 86.0215 100.686C85.6325 101.068 85.0641 101.287 84.5255 101.505C81.7431 102.597 78.8709 103.444 75.909 104.072H75.6996Z" fill="#0954B0"/>
<path d="M65.9769 91.4308C67.024 90.9667 68.0412 89.9565 67.4429 88.8371C66.7847 87.6358 65.1391 87.6631 63.9125 87.8269C62.4764 87.9907 61.0702 88.3456 59.7538 88.8371C58.587 89.2739 57.0612 89.8473 56.9116 91.1851C56.762 92.5229 58.2878 93.0416 59.4846 93.1508C59.9333 93.2055 59.9333 92.5502 59.4846 92.5229C58.7665 92.4683 57.6296 92.2226 57.5997 91.4035C57.5399 90.3387 58.976 89.8473 59.8436 89.4923C60.9506 89.0555 62.1174 88.7552 63.2842 88.5641C63.8826 88.4548 64.451 88.4002 65.0793 88.3729C65.6179 88.3729 66.1863 88.4548 66.5752 88.7825C66.665 88.8371 66.7547 88.919 66.8146 89.0282C66.8744 89.1101 66.9343 89.2193 66.9642 89.3285C66.9941 89.4377 66.9941 89.5469 66.9941 89.6561C66.9941 89.7654 66.9642 89.8746 66.9043 89.9565C66.665 90.4206 66.1863 90.7209 65.7076 90.9121C65.2588 91.0759 65.5879 91.6219 65.9769 91.4308Z" fill="black"/>
<path d="M64.0312 91.813L62.5652 92.3317C62.5053 92.3317 62.4754 92.359 62.4455 92.3863C62.4156 92.4136 62.3857 92.4409 62.3557 92.4682C62.3258 92.4955 62.3258 92.5501 62.2959 92.5775C62.2959 92.6321 62.2959 92.6594 62.2959 92.714C62.2959 92.7686 62.3258 92.7959 62.3557 92.8232C62.3857 92.8505 62.4156 92.8778 62.4754 92.9051C62.5053 92.9324 62.5652 92.9324 62.5951 92.9324C62.6549 92.9324 62.6848 92.9324 62.7447 92.9051L64.2107 92.3863C64.3004 92.359 64.3603 92.3044 64.4201 92.2498C64.45 92.1679 64.4799 92.086 64.45 92.0041C64.4201 91.9222 64.3603 91.8676 64.3004 91.813C64.2107 91.813 64.1209 91.813 64.0312 91.813Z" fill="black"/>
<path d="M66.2156 90.9934L67.0234 93.4506C67.1431 93.8329 67.8013 93.6691 67.6817 93.2868L66.8739 90.8296C66.7542 90.4474 66.096 90.6112 66.2156 90.9934Z" fill="black"/>
<path d="M57.5683 92.6863C57.2093 93.8603 57.0597 95.0889 57.1495 96.3175C57.2093 97.5462 57.4487 98.7475 57.8974 99.9215C58.047 100.304 58.7052 100.14 58.5556 99.7576C57.7179 97.6008 57.5085 95.0889 58.2265 92.8775C58.3462 92.4679 57.688 92.3041 57.5683 92.6863Z" fill="black"/>
<path d="M66.9322 93.915C67.2314 93.8604 67.5006 93.8604 67.7998 93.8877C68.099 93.915 68.3683 93.9696 68.6675 94.0788C68.9367 94.1608 69.206 94.2973 69.4453 94.4611C69.6847 94.6249 69.8941 94.816 70.0736 95.0071C70.1335 95.0617 70.2232 95.089 70.313 95.089C70.4027 95.089 70.4925 95.0617 70.5523 95.0071C70.6121 94.9525 70.6421 94.8706 70.6421 94.7887C70.6421 94.7068 70.6121 94.6249 70.5523 94.5703C70.313 94.3246 70.0736 94.1061 69.7744 93.915C69.4752 93.7239 69.1761 93.5874 68.847 93.4782C68.5179 93.369 68.1588 93.3144 67.7998 93.2871C67.4408 93.2598 67.0818 93.2871 66.7527 93.3417C66.6928 93.3417 66.6629 93.369 66.633 93.3963C66.6031 93.4236 66.5732 93.4509 66.5432 93.4782C66.5133 93.5055 66.5133 93.5601 66.4834 93.5874C66.4834 93.642 66.4834 93.6693 66.4834 93.7239C66.4834 93.7785 66.5133 93.8058 66.5432 93.8331C66.5732 93.8604 66.6031 93.8877 66.6629 93.915C66.6928 93.9423 66.7527 93.9423 66.7826 93.9423C66.8424 93.9423 66.9023 93.9423 66.9322 93.915Z" fill="black"/>
<path d="M86.3205 96.4272C86.0513 95.7992 85.7222 95.2259 85.3332 94.6798C84.9443 94.1338 84.4656 93.615 83.927 93.1782C83.3885 92.7141 82.8201 92.3318 82.1918 92.0042C81.5635 91.6766 80.9053 91.4035 80.2171 91.2124C77.3749 90.448 74.3531 91.0759 72.0494 92.7414C71.3912 93.2055 70.8227 93.7515 70.3441 94.3522C69.8654 94.9529 69.4465 95.6081 69.1772 96.318C69.0276 96.7002 69.6859 96.864 69.8354 96.4818C70.7928 94.1884 73.0367 92.441 75.6097 91.7858C78.2126 91.1305 81.025 91.7585 83.0893 93.3147C84.2861 94.1884 85.1537 95.2805 85.6922 96.591C85.8119 96.9732 86.4701 96.8094 86.3205 96.4272Z" fill="black"/>
<path d="M85.6625 96.5908C85.9019 97.2188 86.1113 97.9833 85.6924 98.5839C85.2736 99.1846 84.4358 99.5122 83.7477 99.7852C81.5637 100.632 79.3497 101.341 77.1058 101.969C72.9472 103.061 68.5491 103.498 64.3606 102.434C62.1765 101.887 60.2019 100.959 58.4965 99.5941C58.1674 99.3211 57.6887 99.7852 58.0178 100.031C61.2191 102.597 65.5573 103.717 69.7459 103.662C74.6226 103.608 79.3497 102.106 83.8076 100.44C84.735 100.086 85.7223 99.7033 86.2908 98.9388C86.8592 98.2017 86.6498 97.2188 86.3506 96.427C86.201 96.0448 85.5129 96.2086 85.6625 96.5908Z" fill="black"/>
<path d="M64.6894 103.253C64.839 103.498 64.5997 103.744 64.3603 103.826C64.0013 103.962 63.5226 103.88 63.1337 103.853C62.2361 103.771 61.3685 103.58 60.5308 103.334C59.7828 103.089 59.0648 102.734 58.616 102.133C58.4963 101.997 58.4066 101.833 58.3467 101.642C58.2869 101.478 58.2271 101.287 58.2271 101.123C58.1971 100.932 58.2271 100.768 58.257 100.577C58.2869 100.386 58.3467 100.222 58.4365 100.058C58.6459 99.7032 58.0475 99.3756 57.8381 99.7305C57.6586 100.058 57.5389 100.44 57.5389 100.823C57.509 101.205 57.5988 101.56 57.7484 101.915C58.0476 102.57 58.5562 103.089 59.2144 103.444C59.9623 103.826 60.7701 104.099 61.6078 104.235C62.0566 104.317 62.5054 104.399 62.9841 104.454C63.403 104.508 63.7919 104.536 64.2108 104.508C64.4202 104.481 64.6296 104.427 64.8091 104.345C64.9886 104.235 65.1382 104.126 65.2579 103.962C65.3776 103.799 65.4374 103.635 65.4374 103.444C65.4374 103.253 65.4075 103.089 65.2878 102.925C65.0784 102.597 64.48 102.898 64.6894 103.253Z" fill="black"/>
<path d="M61.5353 90.4164C63.2705 84.1642 60.3685 76.7379 54.7438 72.8064C53.6368 72.0419 52.5597 73.762 53.6368 74.4992C55.9405 76.0827 57.616 78.6218 58.6631 81.0244C59.9197 83.8912 60.2787 86.8944 59.441 89.8704C59.1119 91.1263 61.1762 91.645 61.5353 90.4164Z" fill="black"/>
<mask id="mask0_1467_1924" style="mask-type:luminance" maskUnits="userSpaceOnUse" x="64" y="97" width="24" height="8">
<path d="M87.1279 97.9014H64.2402V105H87.1279V97.9014Z" fill="white"/>
</mask>
<g mask="url(#mask0_1467_1924)">
<path d="M85.9604 98.5566C86.4091 98.8842 86.3792 99.5121 86.11 99.949C85.7509 100.495 85.0329 100.795 84.4046 101.068C82.9386 101.696 81.4427 102.27 79.8869 102.707C76.8053 103.662 73.634 104.154 70.4028 104.208C68.5777 104.235 66.7826 104.072 64.9875 103.744C64.5687 103.662 64.3592 104.263 64.808 104.345C68.2187 104.973 71.6593 105 75.0701 104.427C78.5107 103.881 81.7718 102.898 84.9132 101.505C85.6612 101.178 86.469 100.741 86.828 99.9763C87.1272 99.3483 87.0674 98.5293 86.4391 98.0651C86.11 97.874 85.6014 98.3108 85.9604 98.5566Z" fill="black"/>
</g>
<path d="M63.074 96.1812C63.8519 95.444 64.7494 94.8707 65.7368 94.4065C65.7966 94.3792 65.8564 94.3246 65.8863 94.2427C65.9163 94.1608 65.8863 94.1062 65.8564 94.0243C65.8265 93.9697 65.7667 93.9151 65.6769 93.8878C65.5872 93.8605 65.5273 93.8878 65.4376 93.9151C64.3904 94.3792 63.463 95.0072 62.6552 95.7716C62.3859 96.0447 62.8047 96.4269 63.074 96.1812Z" fill="black"/>
<path d="M69.2357 97.7921C69.3255 97.7921 69.3853 97.7648 69.4451 97.7102C69.505 97.6556 69.5349 97.601 69.5349 97.5191C69.5349 97.4372 69.505 97.3826 69.4451 97.328C69.3853 97.2734 69.3255 97.2461 69.2357 97.2461C69.146 97.2461 69.0861 97.2734 69.0263 97.328C68.9664 97.3826 68.9365 97.4372 68.9365 97.5191C68.9365 97.601 68.9664 97.6556 69.0263 97.7102C69.0861 97.7648 69.146 97.7921 69.2357 97.7921Z" fill="black"/>
<path d="M24.6425 89.8913C22.9072 83.639 25.8093 76.2128 31.434 72.2813C32.5409 71.5168 33.618 73.2368 32.5409 73.974C30.2372 75.5575 28.5618 78.0967 27.5146 80.4993C26.2581 83.366 25.899 86.3693 26.7368 89.3452C27.0659 90.6011 25.0015 91.1199 24.6425 89.8913Z" fill="black"/>
<path d="M11.4293 103.105C15.0195 103.733 18.6098 103.76 22.2 103.16V103.187C23.7258 103.378 25.2517 102.996 26.7177 102.559C27.4955 102.313 28.3333 102.013 28.812 101.385C29.3206 100.702 29.2607 99.7741 28.9915 98.9823L28.9316 98.9004C29.4103 97.6991 29.6497 96.4705 29.6796 95.1873C29.7095 93.9041 29.53 92.6755 29.1111 91.4469L29.2009 91.4196C29.3206 91.365 29.4103 91.3104 29.5001 91.2285C29.5898 91.1466 29.6796 91.0647 29.7394 90.9555C29.7993 90.8462 29.8591 90.7643 29.889 90.6551C29.9189 90.5459 29.9189 90.4367 29.9189 90.3275C29.889 90.1091 29.8292 89.8907 29.7095 89.6722C29.5898 89.4538 29.4402 89.29 29.2308 89.1535C28.8419 88.8532 28.423 88.6347 27.9443 88.4709C26.4484 87.9249 24.8926 87.5154 23.277 87.2969C22.5889 87.1877 21.9008 87.1058 21.2426 87.2696C20.5844 87.4607 19.986 87.9795 19.986 88.6074C19.986 89.0716 20.3151 89.5084 20.7041 89.8087L20.6442 89.918L19.9561 92.2387C19.9262 92.3479 19.8963 92.4298 19.8364 92.5117C19.6868 92.6755 19.4475 92.7028 19.2081 92.7301C18.3405 92.8393 17.5626 93.1669 16.9044 93.6857L16.7548 93.7403C16.5155 93.4127 16.2163 93.085 15.9171 92.7847C15.6179 92.4844 15.2888 92.2114 14.9298 91.9383C14.5708 91.6926 14.2117 91.4469 13.8228 91.2558C13.4339 91.0647 13.015 90.8735 12.5962 90.737C12.1773 90.6005 11.7584 90.464 11.3097 90.3821C10.8609 90.3002 10.442 90.2456 9.99324 90.2183C9.54446 90.191 9.09569 90.191 8.64691 90.2456C8.19813 90.2729 7.74936 90.3548 7.3305 90.464C6.88172 90.5732 6.46286 90.7097 6.044 90.8462C5.62514 91.0101 5.2362 91.2012 4.84726 91.4196C4.45832 91.638 4.09931 91.8837 3.7702 92.1568C3.4411 92.4298 3.11199 92.7028 2.81281 93.0304C2.51362 93.3308 2.24436 93.6584 2.03493 94.0133C1.79558 94.3682 1.58615 94.7232 1.40664 95.1054C1.22713 95.4876 1.07754 95.8699 0.98778 96.2794C0.868107 96.6889 0.808273 97.0712 0.748436 97.4807L0.658676 97.5353C0.598839 97.7264 0.539001 97.9176 0.509083 98.1087C0.479164 98.2998 0.509085 98.4909 0.539003 98.682C0.568922 98.8731 0.65868 99.0642 0.748436 99.2281C0.838192 99.3919 0.957859 99.5557 1.10745 99.7195C1.49639 100.102 2.06484 100.32 2.60338 100.539C5.38579 101.631 8.25797 102.477 11.2199 103.105H11.4293Z" fill="#0954B0"/>
<path d="M21.153 90.464C20.1059 89.9999 19.0886 88.9897 19.687 87.8703C20.3452 86.669 21.9907 86.6963 23.2174 86.8601C24.6535 87.0239 26.0596 87.3788 27.3761 87.8703C28.5429 88.3071 30.0687 88.8805 30.2183 90.2183C30.3679 91.5561 28.8421 92.0748 27.6453 92.184C27.1965 92.2387 27.1965 91.5834 27.6453 91.5561C28.3634 91.5015 29.5003 91.2558 29.5302 90.4367C29.59 89.3719 28.1539 88.8805 27.2863 88.5255C26.1793 88.0887 25.0125 87.7884 23.8457 87.5973C23.2473 87.488 22.6789 87.4334 22.0506 87.4061C21.512 87.4061 20.9436 87.488 20.5546 87.8157C20.4649 87.8703 20.3751 87.9522 20.3153 88.0614C20.2555 88.1433 20.1956 88.2525 20.1657 88.3617C20.1358 88.4709 20.1358 88.5801 20.1358 88.6894C20.1358 88.7986 20.1657 88.9078 20.2255 88.9897C20.4649 89.4538 20.9436 89.7541 21.4223 89.9453C21.8711 90.1091 21.542 90.6551 21.153 90.464Z" fill="black"/>
<path d="M23.0977 90.8464L24.5637 91.3652C24.6236 91.3652 24.6535 91.3925 24.6834 91.4198C24.7133 91.4471 24.7432 91.4744 24.7732 91.5017C24.8031 91.529 24.8031 91.5836 24.833 91.6109C24.833 91.6655 24.833 91.6928 24.833 91.7474C24.833 91.802 24.8031 91.8293 24.7732 91.8566C24.7432 91.8839 24.7133 91.9112 24.6535 91.9385C24.6236 91.9658 24.5637 91.9658 24.5338 91.9658C24.474 91.9658 24.4441 91.9658 24.3842 91.9385L22.9182 91.4198C22.8285 91.3925 22.7686 91.3379 22.7088 91.2833C22.6789 91.2014 22.649 91.1195 22.6789 91.0375C22.7088 90.9556 22.7686 90.901 22.8285 90.8464C22.9182 90.8464 23.008 90.8464 23.0977 90.8464Z" fill="black"/>
<path d="M20.9152 90.0271L20.1074 92.4843C19.9877 92.8666 19.3295 92.7027 19.4492 92.3205L20.257 89.8633C20.3767 89.4811 21.0349 89.6449 20.9152 90.0271Z" fill="black"/>
<path d="M29.5596 91.72C29.9186 92.894 30.0682 94.1226 29.9785 95.3512C29.9186 96.5798 29.6793 97.7811 29.2305 98.9551C29.0809 99.3374 28.4227 99.1736 28.5723 98.7913C29.41 96.6345 29.6194 94.1226 28.9014 91.9111C28.7817 91.5016 29.4399 91.3378 29.5596 91.72Z" fill="black"/>
<path d="M20.1967 92.9487C19.8975 92.8941 19.6283 92.8941 19.3291 92.9214C19.0299 92.9487 18.7606 93.0033 18.4615 93.1125C18.1922 93.1944 17.9229 93.331 17.6836 93.4948C17.4442 93.6586 17.2348 93.8497 17.0553 94.0408C16.9955 94.0954 16.9057 94.1227 16.8159 94.1227C16.7262 94.1227 16.6364 94.0954 16.5766 94.0408C16.5168 93.9862 16.4868 93.9043 16.4868 93.8224C16.4868 93.7405 16.5168 93.6586 16.5766 93.604C16.8159 93.3583 17.0553 93.1398 17.3545 92.9487C17.6537 92.7576 17.9528 92.6211 18.282 92.5119C18.6111 92.4027 18.9701 92.3481 19.3291 92.3208C19.6881 92.2935 20.0471 92.3208 20.3762 92.3754C20.4361 92.3754 20.466 92.4027 20.4959 92.43C20.5258 92.4573 20.5557 92.4846 20.5857 92.5119C20.6156 92.5392 20.6156 92.5938 20.6455 92.6211C20.6455 92.6757 20.6455 92.703 20.6455 92.7576C20.6455 92.8122 20.6156 92.8395 20.5857 92.8668C20.5557 92.8941 20.5258 92.9214 20.466 92.9487C20.4361 92.976 20.3762 92.976 20.3463 92.976C20.2865 92.976 20.2266 92.976 20.1967 92.9487Z" fill="black"/>
<path d="M0.809359 95.4606C1.07862 94.8327 1.40773 94.2593 1.79667 93.7133C2.18561 93.1672 2.6643 92.6485 3.20284 92.2116C3.74137 91.7475 4.30982 91.3653 4.93811 91.0376C5.5664 90.71 6.22461 90.437 6.91273 90.2459C9.75499 89.4814 12.7768 90.1094 15.0805 91.7748C15.7387 92.2389 16.3071 92.785 16.7858 93.3856C17.2645 93.9863 17.6834 94.6416 17.9526 95.3514C18.1022 95.7337 17.444 95.8975 17.2944 95.5152C16.337 93.2218 14.0932 91.4745 11.5202 90.8192C8.91727 90.164 6.10493 90.7919 4.04056 92.3482C2.84382 93.2218 1.97618 94.3139 1.43765 95.6244C1.31797 96.0067 0.659765 95.8429 0.809359 95.4606Z" fill="black"/>
<path d="M1.46836 95.624C1.22901 96.252 1.01958 97.0165 1.43844 97.6171C1.85729 98.2178 2.69501 98.5454 3.38314 98.8184C5.56718 99.6648 7.78115 100.375 10.025 101.003C14.1837 102.095 18.5817 102.532 22.7703 101.467C24.9544 100.921 26.929 99.9924 28.6343 98.6273C28.9634 98.3543 29.4421 98.8184 29.113 99.0641C25.9117 101.631 21.5736 102.75 17.385 102.695C12.5083 102.641 7.78116 101.139 3.32331 99.4737C2.39583 99.1187 1.40852 98.7365 0.840067 97.972C0.271616 97.2349 0.48105 96.252 0.780235 95.4602C0.929827 95.078 1.61795 95.2418 1.46836 95.624Z" fill="black"/>
<path d="M22.4414 102.286C22.2918 102.532 22.5312 102.778 22.7705 102.86C23.1295 102.996 23.6082 102.914 23.9972 102.887C24.8947 102.805 25.7624 102.614 26.6001 102.368C27.348 102.122 28.0661 101.767 28.5149 101.167C28.6345 101.03 28.7243 100.866 28.7841 100.675C28.844 100.512 28.9038 100.32 28.9038 100.157C28.9337 99.9655 28.9038 99.8017 28.8739 99.6106C28.844 99.4195 28.7841 99.2556 28.6944 99.0918C28.4849 98.7369 29.0833 98.4093 29.2927 98.7642C29.4723 99.0918 29.5919 99.4741 29.5919 99.8563C29.6218 100.239 29.5321 100.593 29.3825 100.948C29.0833 101.604 28.5747 102.122 27.9165 102.477C27.1685 102.86 26.3607 103.133 25.523 103.269C25.0742 103.351 24.6255 103.433 24.1468 103.488C23.7279 103.542 23.339 103.569 22.9201 103.542C22.7107 103.515 22.5012 103.46 22.3217 103.378C22.1422 103.269 21.9926 103.16 21.873 102.996C21.7533 102.832 21.6934 102.668 21.6934 102.477C21.6934 102.286 21.7234 102.122 21.843 101.959C22.0525 101.631 22.6508 101.931 22.4414 102.286Z" fill="black"/>
<mask id="mask1_1467_1924" style="mask-type:luminance" maskUnits="userSpaceOnUse" x="0" y="96" width="23" height="9">
<path d="M6.67572e-05 96.9346H22.8877V104.033H6.67572e-05V96.9346Z" fill="white"/>
</mask>
<g mask="url(#mask1_1467_1924)">
<path d="M1.16756 97.5902C0.718781 97.9179 0.748699 98.5458 1.01797 98.9827C1.37699 99.5287 2.09503 99.829 2.72332 100.102C4.18933 100.73 5.68524 101.303 7.241 101.74C10.3226 102.696 13.494 103.187 16.7252 103.242C18.5502 103.269 20.3453 103.105 22.1404 102.778C22.5593 102.696 22.7687 103.296 22.3199 103.378C18.9092 104.006 15.4686 104.034 12.0579 103.46C8.61726 102.914 5.35614 101.931 2.2147 100.539C1.46674 100.211 0.658945 99.7744 0.299923 99.01C0.000738144 98.382 0.0605717 97.563 0.68886 97.0988C1.01796 96.9077 1.52658 97.3445 1.16756 97.5902Z" fill="black"/>
</g>
<path d="M24.0568 95.2149C23.279 94.4777 22.3814 93.9043 21.3941 93.4402C21.3343 93.4129 21.2744 93.3583 21.2445 93.2764C21.2146 93.1945 21.2445 93.1399 21.2744 93.058C21.3044 93.0034 21.3642 92.9488 21.4539 92.9215C21.5437 92.8942 21.6035 92.9215 21.6933 92.9488C22.7404 93.4129 23.6679 94.0409 24.4757 94.8053C24.745 95.0784 24.3261 95.4606 24.0568 95.2149Z" fill="black"/>
<path d="M17.8932 96.8258C17.8034 96.8258 17.7436 96.7985 17.6838 96.7439C17.6239 96.6893 17.594 96.6347 17.594 96.5528C17.594 96.4709 17.6239 96.4163 17.6838 96.3617C17.7436 96.3071 17.8034 96.2798 17.8932 96.2798C17.983 96.2798 18.0428 96.3071 18.1026 96.3617C18.1625 96.4163 18.1924 96.4709 18.1924 96.5528C18.1924 96.6347 18.1625 96.6893 18.1026 96.7439C18.0428 96.7985 17.983 96.8258 17.8932 96.8258Z" fill="black"/>
<path d="M74.5624 58.17C74.5026 60.4361 72.4681 62.1288 70.0148 62.2107C67.4418 62.2926 65.4074 60.7637 64.3303 58.716C63.7319 57.5966 61.9368 58.5795 62.5053 59.6989C63.9713 62.5111 67.1426 64.4495 70.6132 64.0946C73.9341 63.7397 76.567 61.2825 76.6268 58.1973C76.6866 56.9141 74.5923 56.9141 74.5624 58.17Z" fill="black"/>
<path d="M72.6771 47.358C73.0062 46.7574 72.9165 45.911 73.2755 44.9554C73.5148 44.3548 74.562 42.0614 75.3398 41.3788C75.6091 41.1604 75.9083 40.9966 76.2374 40.8874C76.5665 40.7782 76.9255 40.7236 77.2845 40.7509C77.7034 40.7509 78.4215 41.6245 78.601 42.0614C78.7506 42.4163 77.1649 46.1021 77.2247 46.4843C77.7034 46.4843 78.1223 46.5936 78.5411 46.7847C78.96 47.0031 79.2592 47.3034 79.4387 47.713C79.5584 48.0679 79.6481 48.4501 79.6481 48.8323H79.7379C80.037 48.9416 80.3063 49.0781 80.5457 49.2692C80.785 49.433 81.0244 49.6514 81.2039 49.8698C81.3834 50.0883 81.5629 50.3613 81.6826 50.607C81.8022 50.88 81.892 51.153 81.9219 51.4534C82.0117 52.3817 81.6526 53.3099 81.1141 54.0744C80.5457 54.8389 79.8276 55.5214 79.0497 56.0948V56.1221C79.0797 56.3132 79.0797 56.5043 79.0198 56.6954C78.96 56.8865 78.8403 57.0503 78.6907 57.1869C78.3915 57.4872 78.0026 57.6783 77.5837 57.7602C77.1649 57.8421 76.746 57.8694 76.2972 57.8421C75.639 57.8421 74.9808 57.7602 74.3525 57.5691C74.0534 57.4599 73.7542 57.3234 73.5148 57.1323C73.2755 56.9411 73.066 56.6954 72.8865 56.4497C72.7968 56.3132 72.7669 56.1767 72.707 56.0402C72.6771 55.9037 72.6771 55.7398 72.6771 55.6033C72.6771 55.4395 72.7369 55.303 72.7669 55.1665C72.7968 55.03 72.8865 54.8935 73.0062 54.757L72.9464 54.7023C72.2582 53.9652 71.6599 53.1461 71.1513 52.2997C70.6726 51.4261 70.3734 50.4705 70.4631 49.5149C70.4931 49.0508 70.6726 48.6139 70.9418 48.2044C71.0914 48.0133 71.2709 47.8495 71.4804 47.713C71.6898 47.5764 71.9291 47.4945 72.1984 47.4672L72.6771 47.358Z" fill="#0954B0"/>
<path d="M72.3193 50.0065C72.7382 50.4979 73.2468 50.9894 73.9947 51.0713C74.1443 51.0986 74.2939 51.0713 74.4435 51.044C74.5931 51.0167 74.7427 50.9621 74.8624 50.8802C74.9821 50.7982 75.1017 50.7163 75.1915 50.5798C75.2812 50.4706 75.3411 50.3341 75.4009 50.1976C75.8198 48.9963 74.4734 47.795 73.3665 47.4128C73.0673 47.3035 72.7382 47.2489 72.3791 47.2762C72.05 47.3035 71.7209 47.3582 71.4218 47.522C71.1525 47.6858 70.9131 47.8769 70.7037 48.1226C70.5242 48.3683 70.3746 48.6414 70.3148 48.9417C69.9258 50.1976 70.3148 51.59 70.9431 52.7094C71.5714 53.8561 72.8279 55.6035 74.4734 55.0847C74.8025 54.9755 74.653 54.5114 74.3239 54.6206C73.1271 54.9755 72.2296 53.7469 71.691 52.9824C71.0927 52.0815 70.6439 51.0167 70.6738 49.9246C70.7037 48.969 71.0927 47.8496 72.2894 47.7677C72.8578 47.7404 73.3665 47.8769 73.8152 48.2045C74.2939 48.5048 74.623 48.8871 74.8325 49.3785C74.9821 49.8427 74.8325 50.4706 74.2042 50.5525C73.5161 50.6344 73.0074 50.0611 72.6484 49.6242C72.4689 49.4331 72.1099 49.7881 72.3193 50.0065Z" fill="black"/>
<path d="M74.592 48.3135C75.2801 47.549 76.2076 46.8392 77.3445 46.8119C77.6138 46.7846 77.883 46.8392 78.1224 46.9211C78.3617 47.003 78.6011 47.1395 78.8105 47.3033C78.99 47.4671 79.1396 47.6583 79.2294 47.8767C79.3191 48.0951 79.349 48.3135 79.3191 48.5592C79.2593 48.8596 79.7679 48.9961 79.8277 48.6957C80.0671 47.4944 78.99 46.4843 77.7035 46.375C76.2974 46.2658 75.1006 47.0849 74.2629 48.0132C74.0236 48.2043 74.3826 48.5319 74.592 48.3135Z" fill="black"/>
<path d="M75.1316 51.1258L75.0418 51.1804C75.0119 51.1804 75.0717 51.1804 75.0418 51.1804L75.0119 51.2077L74.9221 51.235C74.8623 51.235 74.8922 51.235 74.9221 51.235H74.8623C74.8324 51.235 74.8025 51.235 74.7726 51.235H74.7127C74.6828 51.235 74.6828 51.235 74.7127 51.235L74.593 51.2077H74.5631H74.5332H74.5033L74.4435 51.1804C74.4135 51.1531 74.3836 51.1531 74.3537 51.1258H74.3238L74.2939 51.0985L74.234 51.0439L74.2041 51.0165C74.1742 50.9892 74.1742 50.9892 74.2041 51.0165L74.1443 50.9346L74.0844 50.8527C74.0844 50.8254 74.0844 50.8254 74.0844 50.8527C74.0844 50.8254 74.0844 50.8254 74.0545 50.7981C74.0246 50.7435 73.9947 50.6889 73.9348 50.6343C73.875 50.607 73.8152 50.5797 73.7254 50.607C73.6656 50.6343 73.6057 50.6616 73.5758 50.7162C73.5459 50.7708 73.5459 50.8527 73.5459 50.9073C73.5758 50.9892 73.6057 51.0712 73.6656 51.1531C73.7254 51.235 73.7553 51.2896 73.8451 51.3715C73.9049 51.4261 73.9947 51.4807 74.0545 51.5353C74.1443 51.5899 74.2041 51.6172 74.2939 51.6445C74.3836 51.6718 74.4734 51.6991 74.5631 51.6991C74.6529 51.6991 74.7426 51.7264 74.8324 51.6991C74.9222 51.6718 75.0119 51.6718 75.1017 51.6445C75.1914 51.6172 75.2812 51.5899 75.3709 51.5353C75.4308 51.508 75.4607 51.4534 75.4906 51.3988C75.5205 51.3442 75.4906 51.2623 75.4607 51.2077C75.4308 51.1531 75.3709 51.0985 75.3111 51.0985C75.2812 51.0712 75.2213 51.0985 75.1316 51.1258Z" fill="black"/>
<path d="M77.3457 56.477C78.9912 56.6135 80.3675 55.6034 81.1753 54.4021C81.654 53.7468 81.9531 53.0642 82.1327 52.2998C82.1925 51.9448 82.1626 51.5626 82.0728 51.2077C81.9831 50.8527 81.8335 50.4978 81.5941 50.1975C81.2052 49.6241 80.6966 48.9962 80.0084 48.6959C79.6494 48.5593 79.2605 48.4774 78.8715 48.5047C78.4826 48.532 78.1236 48.6413 77.7646 48.8324C77.0764 49.1873 76.5977 49.8153 76.2088 50.4159C75.8199 51.0439 75.5805 51.7264 75.8797 52.409C76.1789 53.0915 76.9568 53.4465 77.7346 53.1188C78.5724 52.7639 78.8715 51.9175 79.0511 51.1531C79.1408 50.8527 78.6322 50.7162 78.5424 51.0166C78.3928 51.5626 78.2433 52.2452 77.7047 52.5728C77.1662 52.9004 76.5977 52.7093 76.3584 52.1633C76.119 51.5899 76.4481 50.9893 76.7473 50.4978C77.0465 49.9791 77.4654 49.5695 78.0039 49.2419C78.5724 48.9143 79.2904 48.8324 79.8589 49.1327C80.3974 49.433 80.8462 49.9518 81.1454 50.4432C81.3249 50.7162 81.4445 50.9893 81.5343 51.3169C81.5941 51.6172 81.5941 51.9448 81.5642 52.2452C81.4146 52.8458 81.1753 53.3919 80.8162 53.9106C80.0982 55.0573 78.8416 56.0675 77.2859 55.931C76.9867 55.9856 76.9867 56.4497 77.3457 56.477Z" fill="black"/>
<path d="M78.7508 56.2037C78.8705 56.8862 78.1226 57.323 77.4943 57.4596C76.7463 57.6234 75.9983 57.6507 75.2205 57.5415C74.8614 57.5142 74.5623 57.4323 74.2332 57.2957C73.934 57.1592 73.6348 56.9681 73.3954 56.7497C73.2758 56.6405 73.186 56.504 73.1262 56.3675C73.0663 56.2309 73.0065 56.0944 72.9766 55.9306C72.9467 55.7668 72.9766 55.6303 73.0065 55.4665C73.0364 55.3027 73.0963 55.1662 73.186 55.0296C73.3655 54.7566 72.9167 54.5382 72.7372 54.7839C71.9594 55.876 72.827 57.1865 73.9938 57.678C74.6819 57.951 75.4299 58.0602 76.1779 58.0056C76.8959 57.9783 77.6738 57.951 78.332 57.6507C78.4816 57.5688 78.6312 57.4869 78.7808 57.3777C78.9004 57.2684 79.0201 57.1319 79.1099 56.9954C79.1996 56.8589 79.2595 56.6951 79.2894 56.5313C79.3193 56.3675 79.3193 56.2037 79.2894 56.0398C79.1996 55.7668 78.691 55.876 78.7508 56.2037Z" fill="black"/>
<path d="M77.4947 46.4024C77.3151 45.283 78.3324 44.3274 78.7213 43.3445C79.0803 42.4162 78.841 41.2969 77.8836 40.7508C77.4348 40.5051 76.9262 40.4232 76.4176 40.5051C75.909 40.6143 75.4602 40.8873 75.1311 41.2695C74.3831 42.0886 73.8147 42.9896 73.3958 43.9725C72.8872 45.0919 72.588 46.2659 72.4983 47.4672C72.4684 47.7675 73.0069 47.7675 73.0368 47.4672C73.1266 46.4843 73.336 45.556 73.695 44.6277C74.054 43.6995 74.5327 42.8531 75.1311 42.034C75.4004 41.6245 75.7295 41.2968 76.1782 41.0511C76.3877 40.9419 76.627 40.9146 76.8364 40.9146C77.0758 40.9146 77.2852 40.9692 77.4947 41.0511C77.7041 41.1603 77.9135 41.2968 78.0631 41.488C78.2127 41.6791 78.3025 41.8702 78.3623 42.0886C78.452 42.5801 78.3623 43.0442 78.1229 43.481C77.6443 44.4639 76.8365 45.3649 77.016 46.5116C77.0459 46.8392 77.5545 46.7027 77.4947 46.4024Z" fill="black"/>
<path d="M15.1241 58.4227C15.1839 60.6888 17.2184 62.3815 19.6717 62.4634C22.2447 62.5453 24.2792 61.0164 25.3562 58.9687C25.9546 57.8493 27.7497 58.8322 27.1813 59.9516C25.7152 62.7638 22.5439 64.7022 19.0733 64.3473C15.7524 63.9924 13.1196 61.5351 13.0597 58.45C12.9999 57.1668 15.0942 57.1668 15.1241 58.4227Z" fill="black"/>
<path d="M17.0094 47.6107C16.6803 47.0101 16.7701 46.1637 16.4111 45.2081C16.1717 44.6074 15.1246 42.314 14.3467 41.6315C14.0774 41.4131 13.7782 41.2493 13.4491 41.1401C13.12 41.0308 12.761 40.9762 12.402 41.0035C11.9831 41.0035 11.2651 41.8772 11.0856 42.314C10.936 42.669 12.5216 46.3548 12.4618 46.737C11.9831 46.737 11.5643 46.8462 11.1454 47.0374C10.7265 47.2558 10.4274 47.5561 10.2478 47.9656C10.1282 48.3206 10.0384 48.7028 10.0384 49.085H9.94866C9.64948 49.1942 9.38021 49.3308 9.14086 49.5219C8.90151 49.6857 8.66217 49.9041 8.48266 50.1225C8.30315 50.3409 8.12363 50.614 8.00396 50.8597C7.88429 51.1327 7.79453 51.4057 7.76462 51.7061C7.67486 52.6343 8.03388 53.5626 8.57241 54.3271C9.14086 55.0915 9.8589 55.7741 10.6368 56.3475V56.3748C10.6069 56.5659 10.6069 56.757 10.6667 56.9481C10.7265 57.1392 10.8462 57.303 10.9958 57.4395C11.295 57.7399 11.6839 57.931 12.1028 58.0129C12.5217 58.0948 12.9405 58.1221 13.3893 58.0948C14.0475 58.0948 14.7057 58.0129 15.334 57.8218C15.6332 57.7126 15.9324 57.5761 16.1717 57.3849C16.411 57.1938 16.6205 56.9481 16.8 56.7024C16.8897 56.5659 16.9197 56.4294 16.9795 56.2929C17.0094 56.1563 17.0094 55.9925 17.0094 55.856C17.0094 55.6922 16.9496 55.5557 16.9197 55.4192C16.8897 55.2827 16.8 55.1462 16.6803 55.0096L16.7402 54.955C17.4283 54.2179 18.0267 53.3988 18.5353 52.5524C19.014 51.6788 19.3131 50.7232 19.2234 49.7676C19.1935 49.3034 19.014 48.8666 18.7447 48.4571C18.5951 48.266 18.4156 48.1021 18.2062 47.9656C17.9967 47.8291 17.7574 47.7472 17.4881 47.7199L17.0094 47.6107Z" fill="#0954B0"/>
<path d="M17.3682 50.2594C16.9493 50.7509 16.4407 51.2423 15.6928 51.3242C15.5432 51.3515 15.3936 51.3242 15.244 51.2969C15.0944 51.2696 14.9448 51.215 14.8251 51.1331C14.7054 51.0512 14.5858 50.9693 14.496 50.8328C14.4063 50.7236 14.3464 50.587 14.2866 50.4505C13.8677 49.2492 15.2141 48.0479 16.321 47.6657C16.6202 47.5565 16.9493 47.5019 17.3084 47.5292C17.6375 47.5565 17.9666 47.6111 18.2657 47.7749C18.535 47.9387 18.7744 48.1298 18.9838 48.3755C19.1633 48.6213 19.3129 48.8943 19.3727 49.1946C19.7617 50.4505 19.3727 51.8429 18.7444 52.9623C18.1161 54.109 16.8596 55.8564 15.2141 55.3376C14.885 55.2284 15.0345 54.7643 15.3636 54.8735C16.5604 55.2284 17.4579 53.9998 17.9965 53.2354C18.5948 52.3344 19.0436 51.2696 19.0137 50.1775C18.9838 49.2219 18.5948 48.1025 17.3981 48.0206C16.8297 47.9933 16.321 48.1298 15.8723 48.4575C15.3936 48.7578 15.0645 49.14 14.855 49.6315C14.7054 50.0956 14.855 50.7235 15.4833 50.8055C16.1714 50.8874 16.6801 50.314 17.0391 49.8772C17.2186 49.6861 17.5776 50.041 17.3682 50.2594Z" fill="black"/>
<path d="M15.0955 48.5662C14.4074 47.8017 13.4799 47.0919 12.343 47.0646C12.0737 47.0373 11.8045 47.0919 11.5651 47.1738C11.3258 47.2557 11.0864 47.3922 10.877 47.556C10.6975 47.7198 10.5479 47.9109 10.4581 48.1294C10.3684 48.3478 10.3385 48.5662 10.3684 48.8119C10.4282 49.1122 9.9196 49.2488 9.85976 48.9484C9.62042 47.7471 10.6975 46.7369 11.984 46.6277C13.3901 46.5185 14.5869 47.3376 15.4246 48.2659C15.6639 48.457 15.3049 48.7846 15.0955 48.5662Z" fill="black"/>
<path d="M14.5569 51.3787L14.6467 51.4333C14.6766 51.4333 14.6167 51.4333 14.6467 51.4333L14.6766 51.4606L14.7663 51.4879C14.8262 51.4879 14.7962 51.4879 14.7663 51.4879H14.8262C14.8561 51.4879 14.886 51.4879 14.9159 51.4879H14.9758C15.0057 51.4879 15.0057 51.4879 14.9758 51.4879L15.0954 51.4606H15.1253H15.1553H15.1852L15.245 51.4333C15.2749 51.406 15.3049 51.406 15.3348 51.3787H15.3647L15.3946 51.3514L15.4544 51.2968L15.4844 51.2695C15.5143 51.2422 15.5143 51.2422 15.4844 51.2695L15.5442 51.1876L15.604 51.1057C15.604 51.0784 15.604 51.0784 15.604 51.1057C15.604 51.0784 15.604 51.0784 15.634 51.0511C15.6639 50.9965 15.6938 50.9419 15.7536 50.8872C15.8135 50.8599 15.8733 50.8326 15.9631 50.8599C16.0229 50.8872 16.0827 50.9145 16.1127 50.9692C16.1426 51.0238 16.1426 51.1057 16.1426 51.1603C16.1127 51.2422 16.0827 51.3241 16.0229 51.406C15.9631 51.4879 15.9331 51.5425 15.8434 51.6244C15.7836 51.679 15.6938 51.7336 15.634 51.7882C15.5442 51.8428 15.4844 51.8701 15.3946 51.8974C15.3049 51.9247 15.2151 51.952 15.1253 51.952C15.0356 51.952 14.9458 51.9793 14.8561 51.952C14.7663 51.9247 14.6766 51.9247 14.5868 51.8974C14.4971 51.8701 14.4073 51.8428 14.3175 51.7882C14.2577 51.7609 14.2278 51.7063 14.1979 51.6517C14.168 51.5971 14.1979 51.5152 14.2278 51.4606C14.2577 51.406 14.3175 51.3514 14.3774 51.3514C14.4073 51.3241 14.4671 51.3514 14.5569 51.3787Z" fill="black"/>
<path d="M12.3418 56.7297C10.6963 56.8662 9.32004 55.856 8.51224 54.6547C8.03354 53.9995 7.73435 53.3169 7.55484 52.5525C7.49501 52.1975 7.52493 51.8153 7.61468 51.4604C7.70444 51.1054 7.85402 50.7505 8.09337 50.4502C8.48231 49.8768 8.99093 49.2489 9.67906 48.9485C10.0381 48.812 10.427 48.7301 10.816 48.7574C11.2049 48.7847 11.5639 48.8939 11.9229 49.0851C12.6111 49.44 13.0898 50.0679 13.4787 50.6686C13.8676 51.2965 14.107 51.9791 13.8078 52.6617C13.5086 53.3442 12.7307 53.6992 11.9529 53.3715C11.1151 53.0166 10.816 52.1702 10.6364 51.4058C10.5467 51.1054 11.0553 50.9689 11.1451 51.2692C11.2947 51.8153 11.4442 52.4978 11.9828 52.8255C12.5213 53.1531 13.0898 52.962 13.3291 52.4159C13.5685 51.8426 13.2394 51.2419 12.9402 50.7505C12.641 50.2318 12.2221 49.8222 11.6836 49.4946C11.1151 49.167 10.3971 49.0851 9.82865 49.3854C9.29012 49.6857 8.84133 50.2045 8.54215 50.6959C8.36264 50.9689 8.24297 51.2419 8.15321 51.5696C8.09338 51.8699 8.09337 52.1975 8.12329 52.4978C8.27288 53.0985 8.51223 53.6446 8.87125 54.1633C9.5893 55.31 10.8459 56.3202 12.4016 56.1837C12.7008 56.2383 12.7008 56.7024 12.3418 56.7297Z" fill="black"/>
<path d="M10.9357 56.4566C10.816 57.1391 11.564 57.576 12.1923 57.7125C12.9402 57.8763 13.6882 57.9036 14.4661 57.7944C14.8251 57.7671 15.1243 57.6852 15.4534 57.5487C15.7526 57.4122 16.0517 57.221 16.2911 57.0026C16.4108 56.8934 16.5005 56.7569 16.5604 56.6204C16.6202 56.4839 16.68 56.3474 16.7099 56.1836C16.7399 56.0197 16.7099 55.8832 16.68 55.7194C16.6501 55.5556 16.5903 55.4191 16.5005 55.2826C16.321 55.0096 16.7698 54.7911 16.9493 55.0369C17.7272 56.129 16.8595 57.4395 15.6927 57.9309C15.0046 58.2039 14.2566 58.3131 13.5087 58.2585C12.7906 58.2312 12.0127 58.2039 11.3545 57.9036C11.205 57.8217 11.0554 57.7398 10.9058 57.6306C10.7861 57.5214 10.6664 57.3849 10.5767 57.2483C10.4869 57.1118 10.4271 56.948 10.3971 56.7842C10.3672 56.6204 10.3672 56.4566 10.3971 56.2928C10.4869 56.0197 10.9955 56.129 10.9357 56.4566Z" fill="black"/>
<path d="M12.1938 46.6553C12.3733 45.5359 11.3561 44.5803 10.9672 43.5975C10.6081 42.6692 10.8475 41.5498 11.8049 41.0037C12.2537 40.758 12.7623 40.6761 13.2709 40.758C13.7795 40.8672 14.2283 41.1402 14.5574 41.5225C15.3053 42.3415 15.8738 43.2425 16.2927 44.2254C16.8013 45.3448 17.1004 46.5188 17.1902 47.7201C17.2201 48.0204 16.6816 48.0204 16.6517 47.7201C16.5619 46.7372 16.3525 45.8089 15.9935 44.8807C15.6344 43.9524 15.1557 43.106 14.5574 42.2869C14.2881 41.8774 13.959 41.5498 13.5102 41.3041C13.3008 41.1948 13.0615 41.1675 12.852 41.1675C12.6127 41.1675 12.4032 41.2221 12.1938 41.3041C11.9844 41.4133 11.775 41.5498 11.6254 41.7409C11.4758 41.932 11.386 42.1231 11.3262 42.3415C11.2364 42.833 11.3262 43.2971 11.5655 43.734C12.0442 44.7169 12.852 45.6178 12.6725 46.7645C12.6426 47.0922 12.134 46.9556 12.1938 46.6553Z" fill="black"/>
<path d="M32.7507 35.829C32.649 35.2012 32.4789 34.6168 32.2205 34.0169C31.9914 33.4221 31.694 32.8708 31.3376 32.3091C30.9764 31.7743 30.5811 31.2612 30.1173 30.7915C29.6535 30.3218 29.1554 29.8738 28.6137 29.5013C27.5055 28.7242 26.153 28.126 24.7996 28.2207C23.5345 28.3309 22.4395 29.0255 21.5955 29.8474C20.5319 30.8802 19.6802 32.0888 19.0547 33.3927C18.4245 34.7235 18.0595 36.101 17.9548 37.5519C17.7893 39.5189 18.1865 41.2244 18.982 43.0832C19.6282 44.583 20.1376 46.1696 21.1802 47.4897C22.6181 49.3228 23.7528 51.3243 24.6233 53.4458C24.8324 53.9816 25.0909 54.5815 25.6222 54.8413C26.5128 55.3029 27.5783 54.6031 28.0792 53.8317C28.3758 53.3571 28.5934 52.8132 28.6885 52.2755C28.7883 51.7108 28.795 51.1575 28.6839 50.5835C28.3912 49.1459 27.3933 47.9169 26.5522 46.66C25.2264 44.708 24.1601 42.6631 23.3286 40.493C22.6861 38.7998 22.249 36.9763 22.8184 35.3022C23.1949 34.204 24.2537 33.1981 25.5055 33.335C26.1585 33.4221 26.7297 33.7998 27.1935 34.2695C27.662 34.7123 28.0574 35.2254 28.3843 35.7819C28.7112 36.3384 28.9403 36.9332 29.0467 37.5341C29.2177 38.285 29.2766 39.1548 29.9172 39.6556C30.6908 40.2629 31.935 39.9272 32.5737 39.2356C33.183 38.5387 33.3542 37.5708 33.4863 36.6514L32.7507 35.829Z" fill="#F2F2F2"/>
<path d="M33.1191 35.8102C32.9927 35.1504 32.8027 34.507 32.5489 33.8802C32.2952 33.2534 31.9778 32.6431 31.5919 32.0762C31.206 31.5094 30.786 30.9642 30.268 30.4573C29.7795 29.9555 29.2225 29.4971 28.6561 29.0926C27.3265 28.1934 25.7288 27.6075 24.112 27.9885C22.6863 28.32 21.5343 29.3372 20.6228 30.3691C19.6285 31.5249 18.8557 32.8029 18.3386 34.1813C17.8167 35.5866 17.5648 37.0117 17.5732 38.5102C17.6207 39.9602 17.9181 41.371 18.4655 42.7425C19.0081 44.1409 19.546 45.5663 20.3481 46.8717C20.7492 47.5244 21.2529 48.112 21.7129 48.7751C22.1482 49.4061 22.5787 50.064 22.9408 50.7653C23.3076 51.4398 23.6697 52.1411 23.9729 52.832C24.2608 53.4372 24.4366 54.1612 24.8909 54.6846C24.9898 54.8129 25.1228 54.9195 25.2853 55.0312C25.4231 55.1109 25.5904 55.1958 25.7625 55.2537C25.9345 55.3117 26.116 55.3159 26.2976 55.3201C26.4791 55.3243 26.6359 55.2965 26.7975 55.2417C27.498 55.0599 28.0445 54.5461 28.3896 53.9692C28.5987 53.6455 28.7489 53.3115 28.8696 52.9724C28.9904 52.6332 29.0569 52.2568 29.094 51.8751C29.1311 51.4935 29.1045 51.1285 29.0484 50.7582C28.9924 50.3879 28.9021 50.0394 28.7529 49.6805C28.235 48.3141 27.2275 47.1389 26.4406 45.9193C25.5501 44.5983 24.8259 43.1957 24.1997 41.7548C23.5734 40.3139 22.9861 38.8245 22.8987 37.2566C22.8475 36 23.1726 34.5047 24.4444 33.8412C25.814 33.1394 27.117 34.533 27.7946 35.5116C28.1805 36.0784 28.4637 36.7104 28.649 37.3807C28.7849 37.9867 28.8229 38.6311 29.1156 39.2093C29.2448 39.5093 29.4473 39.7389 29.7181 39.9252C29.989 40.1114 30.3036 40.2222 30.6277 40.2792C30.9566 40.3093 31.2949 40.2856 31.6181 40.1761C31.9365 40.0935 32.2349 39.9519 32.484 39.7462C33.0799 39.2965 33.3803 38.6285 33.5923 37.945C33.6883 37.5738 33.7501 37.2242 33.8167 36.8478C33.8842 36.6379 33.8243 36.461 33.6665 36.3224L33.0393 35.5744C32.738 35.2165 32.1515 35.6124 32.4576 35.9434L33.1884 36.7928L33.1133 36.53C32.9432 37.6645 32.7017 39.2023 31.276 39.5338C31.1486 39.5668 31.026 39.573 30.9034 39.5791C30.7808 39.5853 30.6334 39.5594 30.5203 39.5118C30.4072 39.4642 30.2941 39.4165 30.1858 39.342C30.0774 39.2675 30.0033 39.1713 29.9292 39.0751C29.588 38.5993 29.57 38.0139 29.454 37.4668C29.3229 36.8338 29.0986 36.2122 28.7765 35.6288C28.4543 35.0454 28.0637 34.5054 27.5704 34.0305C27.0524 33.5236 26.4613 33.0869 25.7294 32.9305C25.4348 32.8787 25.1306 32.8806 24.8217 32.9095C24.5081 32.9652 24.2486 33.0582 23.9796 33.205C22.8352 33.8354 22.3077 35.1011 22.2164 36.3049C22.0823 37.7507 22.4928 39.209 23.0107 40.5754C23.5334 41.9149 24.1198 43.2378 24.8382 44.5008C25.532 45.7318 26.3874 46.908 27.179 48.1007C27.9507 49.2344 28.5466 50.5036 28.3678 51.8583C28.2785 52.5357 28.0513 53.1334 27.6473 53.7C27.3308 54.1156 26.7595 54.5974 26.1607 54.5475C25.503 54.4873 25.2493 53.8605 25.0307 53.3785C24.7523 52.7196 24.4691 52.0876 24.1564 51.4504C23.5016 50.1709 22.7441 48.9565 21.8888 47.7803C21.4392 47.2299 21.0287 46.631 20.6818 46.0155C20.3349 45.4 20.0859 44.7463 19.8027 44.1143C19.2658 42.8555 18.6994 41.5915 18.4514 40.2449C17.9212 37.5734 18.5382 34.7709 19.9231 32.4362C20.5837 31.2771 21.4611 30.267 22.5209 29.4276C23.0142 29.043 23.6111 28.7599 24.2527 28.5677C24.9532 28.3859 25.6451 28.4245 26.3674 28.6346C27.7237 29.0395 28.9013 29.9397 29.8241 30.9059C30.7222 31.8401 31.3904 32.8725 31.8532 34.0351C32.087 34.603 32.2276 35.1822 32.3388 35.7562C32.4889 36.2816 33.1951 36.2395 33.1191 35.8102Z" fill="black"/>
<path d="M34.294 28.6426C36.6817 25.7911 40.0026 25.7375 42.4216 25.8025C44.6589 25.8632 46.825 26.3273 49.1108 27.1451C54.4247 29.0499 59.4668 31.4614 64.2417 34.3527C66.0827 35.4527 67.9341 36.6654 69.1896 38.3278C70.4793 39.9685 71.4829 42.1965 70.2082 44.0793C68.943 45.9084 67.8204 47.7903 66.8309 49.7787C65.8461 51.7402 65.0286 53.7866 64.3537 55.8858C63.6787 57.985 63.1806 60.1153 62.8592 62.2766C62.5084 64.4328 62.3638 66.6253 62.3418 68.8116C62.3512 70.4766 62.4006 72.2596 61.4025 73.6089C60.2733 75.1846 58.1395 76.0847 56.1653 76.5969C53.466 77.2589 50.7258 77.6365 47.9352 77.7834C45.1447 77.9303 42.3427 77.7979 39.5541 77.4184C33.859 76.6387 26.4503 73.8665 22.5926 70.0831L22.4748 69.2029C22.2878 65.6214 22.4049 62.038 22.8214 58.4794C23.2378 54.9209 23.949 51.4142 24.95 47.9861C25.951 44.5581 27.2419 41.2088 28.8179 37.9651C30.3645 34.7161 32.1867 31.6266 34.294 28.6426Z" fill="#F2F2F2"/>
<path d="M34.5578 28.8826C35.0549 28.3047 35.6309 27.7961 36.281 27.3837C36.9311 26.9712 37.6849 26.6602 38.4491 26.4619C39.7227 26.1314 41.0619 26.1174 42.3621 26.152C44.5653 26.2345 46.7114 26.6396 48.7662 27.3891C50.8258 28.1117 52.8664 28.9418 54.8633 29.8475C56.8602 30.7531 58.8428 31.7394 60.7816 32.8012C62.6122 33.7884 64.4332 34.8295 66.1078 36.0111C67.7036 37.1234 69.0998 38.5056 69.8942 40.1979C70.2715 40.985 70.4872 41.8269 70.3351 42.6873C70.1735 43.6015 69.5252 44.347 69.0243 45.1183C67.9445 46.7582 67.0025 48.4777 66.1489 50.2128C65.32 51.9799 64.5795 53.7626 64.0063 55.6302C63.4083 57.4657 62.953 59.354 62.6155 61.263C62.2779 63.172 62.0583 65.1018 61.9907 67.0305C61.9422 67.9923 61.9573 68.9376 61.943 69.8777C61.9287 70.8178 61.8754 71.8064 61.4781 72.6792C60.8051 74.2519 59.079 75.2514 57.4242 75.8476C55.5784 76.4933 53.5739 76.8339 51.6131 77.099C49.5296 77.3702 47.4111 77.4967 45.2868 77.4835C41.4602 77.476 37.7288 76.9307 34.0629 75.8424C30.6917 74.806 27.3328 73.3559 24.5101 71.2793C23.8895 70.8375 23.3078 70.347 22.7651 69.808L22.9086 70.0273C22.7756 69.0613 22.7063 68.0788 22.7254 67.1119C22.6827 65.635 22.7284 64.1737 22.7788 62.6855C23.0091 58.2902 23.6813 53.9727 24.8002 49.7059C25.9191 45.4392 27.4657 41.3309 29.44 37.3809C30.959 34.4599 32.65 31.5967 34.5578 28.8826C34.8011 28.5373 34.2441 28.079 33.9961 28.4512C30.7937 32.9892 28.2111 37.8025 26.2433 42.918C24.2756 48.0335 23.0055 53.3271 22.3789 58.7616C22.085 61.4546 21.9433 64.1465 21.9831 66.8427C21.9792 67.8955 22.039 68.9318 22.1578 69.9785C22.1635 70.1181 22.1986 70.2629 22.3022 70.3643C22.5094 70.5671 22.7166 70.7698 22.958 70.9509C23.3771 71.3296 23.8352 71.6596 24.2933 71.9897C26.3225 73.4 28.517 74.5622 30.877 75.4762C33.2322 76.4172 35.6349 77.0892 38.1346 77.5565C40.9926 78.0591 43.8734 78.2608 46.7476 78.1563C49.7054 78.0942 52.6224 77.7478 55.5033 77.09C57.9726 76.5262 60.7242 75.5685 61.9628 73.3743C62.6282 72.1883 62.6891 70.8129 62.6768 69.5077C62.674 68.1487 62.7007 66.795 62.8205 65.4299C63.0307 62.6945 63.5403 59.984 64.2809 57.3419C65.0214 54.6998 66.0224 52.1312 67.279 49.663C67.895 48.4129 68.5946 47.2052 69.3189 46.0295C69.6934 45.4577 70.0679 44.886 70.4767 44.2925C70.8417 43.7745 71.0689 43.1768 71.1193 42.548C71.2153 41.3173 70.7573 40.1278 70.0987 39.0417C69.3612 37.8862 68.4431 36.8931 67.3491 36.0353C66.221 35.1993 65.0539 34.4119 63.8088 33.7216C62.4896 32.9352 61.1657 32.1756 59.8027 31.4646C57.0522 30.0106 54.2094 28.7344 51.3135 27.5875C49.8678 27.0006 48.3785 26.4892 46.8701 26.0853C45.3865 25.7135 43.9085 25.4813 42.3631 25.4591C40.3957 25.4181 38.3997 25.5383 36.6137 26.3609C35.5815 26.8725 34.7023 27.5496 33.9713 28.4191C33.728 28.7644 34.285 29.2228 34.5578 28.8826Z" fill="black"/>
<path d="M38.2572 27.3708C37.149 27.4531 36.5863 28.574 36.8514 29.48C37.1669 30.6167 38.3388 31.3773 39.2844 32.0426C41.5255 33.6288 43.9273 34.9938 46.4602 36.1323C49.0178 37.3029 51.6676 38.2956 54.3222 39.2615C57.1241 40.2532 59.9602 41.2233 62.7669 42.1881C64.2562 42.6995 65.8986 43.3765 67.5106 43.0223C68.8042 42.7508 69.9562 41.7335 69.846 40.4666C69.7994 40.0426 69.0932 40.0847 69.1056 40.5305C69.1797 41.4861 68.1978 42.2283 67.2568 42.3955C65.9385 42.635 64.5718 42.1174 63.3429 41.6795C60.7083 40.7726 58.0736 39.8657 55.4685 38.964C50.5775 37.2445 45.6808 35.3853 41.3383 32.6256C40.7377 32.2427 40.1418 31.833 39.5753 31.4284C39.0288 31.0828 38.5555 30.6669 38.1164 30.2293C37.761 29.8341 37.5082 29.3738 37.5985 28.8629C37.665 28.4865 37.9426 28.1194 38.4036 28.0896C38.7809 28.0173 38.7477 27.3461 38.2572 27.3708Z" fill="black"/>
<path d="M33.0648 34.9138C30.2064 41.2866 27.5401 47.7763 25.9496 54.5384C25.2023 57.7338 24.5739 61.1164 24.627 64.4249C24.6468 67.0621 25.6437 69.8434 28.3153 71.2281C28.9844 71.5676 29.4597 70.5976 28.7906 70.2582C25.8633 68.7731 25.6334 65.4336 25.8294 62.7788C26.0862 59.6081 26.6081 56.4839 27.4247 53.4116C29.0085 47.2028 31.4867 41.2622 34.1027 35.4013C34.4031 34.7333 33.331 34.2675 33.0648 34.9138Z" fill="#F2F2F2"/>
<path d="M51.6581 34.7454C51.7218 34.7289 51.815 34.7176 51.8786 34.7011L51.7855 34.7124C51.9423 34.6845 52.0991 34.6567 52.2759 34.6877L52.1581 34.667C52.3101 34.666 52.428 34.6868 52.5706 34.7396C52.6295 34.7499 52.659 34.7551 52.7226 34.7386C52.7863 34.7221 52.8205 34.7003 52.8548 34.6786C52.889 34.6569 52.9279 34.6083 52.9622 34.5866C53.0011 34.538 53.0059 34.5112 53.0154 34.4574C53.0344 34.3498 53.0192 34.264 52.9403 34.1947C52.8614 34.1253 52.7826 34.056 52.6942 34.0405C52.257 33.9359 51.8007 33.9388 51.3797 34.0866C51.316 34.1031 51.2818 34.1248 51.2476 34.1465C51.2133 34.1682 51.1744 34.2168 51.1354 34.2654C51.0964 34.314 51.0869 34.3678 51.0822 34.3946C51.0727 34.4484 51.0926 34.5074 51.1173 34.5394C51.1373 34.5984 51.162 34.6305 51.2162 34.6677C51.2409 34.6998 51.295 34.737 51.354 34.7474C51.4129 34.7578 51.4718 34.7681 51.5013 34.7733C51.5308 34.7785 51.5944 34.762 51.6581 34.7454Z" fill="#F2F2F2"/>
<path d="M53.9085 35.5849C54.608 36.096 55.3703 36.4242 56.2247 36.5744C57.0545 36.6926 57.8586 36.6122 58.6076 36.3281C59.3518 36.0708 60.0466 35.7494 60.6967 35.337C61.2832 34.9411 61.7907 34.4759 62.2536 33.9197C62.7118 33.3903 63.1547 32.7751 63.8647 32.5396C64.3495 32.3753 64.0416 31.7112 63.5911 31.8538C62.2984 32.2919 61.7509 33.4986 60.8137 34.3318C60.2766 34.7918 59.6702 35.1288 58.9849 35.3964C58.3291 35.6692 57.5896 35.8996 56.8587 35.9096C55.9805 35.8938 55.1346 35.5233 54.4304 35.039C53.997 34.741 53.5046 35.2921 53.9085 35.5849Z" fill="#F2F2F2"/>
<path d="M65.0077 32.269L65.2919 32.2081C65.3509 32.2185 65.3851 32.1968 65.4193 32.1751C65.4535 32.1534 65.5172 32.1368 65.5267 32.0831C65.5609 32.0614 65.5704 32.0076 65.6094 31.959C65.6189 31.9052 65.6237 31.8783 65.6332 31.8246L65.618 31.7387C65.598 31.6797 65.5486 31.6156 65.4944 31.5784L65.4108 31.5359C65.3566 31.4987 65.2682 31.4831 65.2045 31.4997L64.9203 31.5606C64.8614 31.5502 64.8272 31.5719 64.793 31.5936C64.7587 31.6153 64.6951 31.6319 64.6856 31.6856C64.6513 31.7073 64.6124 31.7559 64.6029 31.8097C64.5934 31.8635 64.5838 31.9173 64.5791 31.9441L64.5943 32.03C64.6143 32.0889 64.6637 32.1531 64.7179 32.1903L64.8015 32.2328C64.8557 32.27 64.9441 32.2856 65.0077 32.269Z" fill="#F2F2F2"/>
<path fill-rule="evenodd" clip-rule="evenodd" d="M37.1622 54.786C40.9857 56.1739 43.6461 53.3334 45.1629 49.1772C46.6797 45.021 46.6412 41.2008 42.649 39.7517C38.6567 38.3025 36.165 41.2042 34.6482 45.3604C33.1314 49.5167 33.3387 53.398 37.1622 54.786Z" stroke="black" stroke-width="0.607405" stroke-miterlimit="1.7576"/>
<path d="M36.3585 42.1455C39.4093 44.2461 42.6269 45.3589 45.958 45.6301" stroke="black" stroke-width="0.607405" stroke-miterlimit="1.7576"/>
<path fill-rule="evenodd" clip-rule="evenodd" d="M41.1681 51.6978C42.6112 52.0182 43.1853 51.9439 43.916 51.1631C44.5062 50.5057 44.93 49.722 45.3926 48.4544C45.6083 47.6405 45.8501 46.7549 45.8766 45.791C44.5459 45.5114 42.9824 45.3894 41.7173 44.9302C40.9582 44.6546 40.2449 44.3727 39.5889 44.0765C39.1486 44.5849 38.8891 45.0305 38.6925 45.6565L42.1601 47.4963L38.3369 47.3288C38.1314 49.3752 38.8159 51.1635 41.1681 51.6978Z" fill="#0954B0"/>
<path fill-rule="evenodd" clip-rule="evenodd" d="M51.8898 59.6527C55.7133 61.0406 58.3737 58.2001 59.8905 54.0439C61.4073 49.8877 61.3687 46.0675 57.3765 44.6184C53.3843 43.1692 50.8926 46.0709 49.3758 50.2271C47.859 54.3834 48.0662 58.2647 51.8898 59.6527Z" stroke="black" stroke-width="0.607405" stroke-miterlimit="1.7576"/>
<path d="M51.087 47.0127C54.1378 49.1133 57.3554 50.2261 60.6865 50.4973" stroke="black" stroke-width="0.607405" stroke-miterlimit="1.7576"/>
<path fill-rule="evenodd" clip-rule="evenodd" d="M55.8976 56.5642C57.3407 56.8847 57.9148 56.8103 58.6455 56.0296C59.2357 55.3722 59.6594 54.5885 60.1221 53.3209C60.3378 52.5069 60.5796 51.6213 60.606 50.6575C59.2754 50.3778 57.7119 50.2559 56.4468 49.7966C55.6877 49.5211 54.9744 49.2392 54.3184 48.9429C53.8781 49.4514 53.6186 49.897 53.422 50.5229L56.8896 52.3628L53.0664 52.1953C52.8609 54.2416 53.5454 56.03 55.8976 56.5642Z" fill="#0954B0"/>
<path d="M41.9415 58.6028C42.8391 58.3025 43.9161 58.7393 43.946 59.6676C43.976 59.8587 43.9161 60.0498 43.7965 60.2409C43.6768 60.4321 43.5272 60.5686 43.3477 60.6505C43.1682 60.7597 42.9587 60.787 42.7194 60.787C42.51 60.787 42.3005 60.7051 42.121 60.5959C41.7321 60.3228 41.2534 60.8689 41.6423 61.1419C41.9415 61.333 42.2407 61.4422 42.5997 61.4695C42.9587 61.4968 43.2878 61.4422 43.6169 61.3057C43.9461 61.1692 44.1854 60.9508 44.3948 60.6778C44.6043 60.4048 44.694 60.1044 44.694 59.7768C44.7539 58.2752 43.0784 57.4561 41.6423 57.9202C41.1936 58.1114 41.4628 58.7666 41.9415 58.6028Z" fill="black"/>
<path d="M32.2157 61.2327C32.3952 61.5057 32.5747 61.7788 32.7542 62.0518C32.9636 62.3248 33.173 62.5705 33.3825 62.8162C33.5919 63.062 33.8313 63.3077 34.1005 63.5261C34.3399 63.7445 34.6091 63.9629 34.8784 64.1814C35.1477 64.3725 35.4169 64.5909 35.7161 64.7547C36.0153 64.9458 36.2846 65.1097 36.6137 65.2462C36.9129 65.41 37.242 65.5465 37.5411 65.683C37.8702 65.8195 38.1694 65.9287 38.4985 66.0379C38.8276 66.1471 39.1567 66.229 39.4858 66.311C39.8149 66.3929 40.174 66.4475 40.5031 66.5021C40.8322 66.5567 41.1912 66.584 41.5502 66.6113C41.9092 66.6386 42.2383 66.6386 42.5974 66.6113C42.9564 66.6113 43.2855 66.584 43.6445 66.5294C44.0035 66.5021 44.3326 66.4475 44.6617 66.3656C44.9908 66.2836 45.3499 66.2017 45.679 66.1198C46.0081 66.0106 46.3372 65.9014 46.6663 65.7922C47.145 65.6011 46.9355 64.9185 46.4569 65.0823C41.3707 67.0208 35.6563 65.2735 32.9038 60.9051C32.6345 60.4409 31.9464 60.8232 32.2157 61.2327Z" fill="black"/>
<path d="M32.1744 61.1161C32.2494 61.4339 32.0995 60.7984 32.1746 61.1162C32.2778 61.4442 32.4441 61.881 32.5566 62.1833C32.6692 62.4857 32.9135 63.182 33.0917 63.4791C32.9135 63.182 33.2417 63.766 33.0917 63.4791C33.2791 63.7506 33.7835 64.7476 34.0085 65.0036C34.2241 65.2853 34.6632 65.9827 34.9256 66.2232C34.6913 65.9929 35.1506 66.4792 34.9256 66.2232C35.1881 66.4637 35.7238 67.0755 35.9956 67.2904C36.2674 67.5052 37.0138 68.0158 37.2949 68.2051C37.5761 68.3943 38.1509 68.6513 38.4414 68.8149C38.1134 68.6667 38.7319 68.9784 38.4414 68.8149C38.7694 68.963 39.5468 69.1754 39.8936 69.2722C40.2309 69.3947 41.0784 69.4247 41.4986 69.4247C41.9187 69.4247 42.7979 69.1314 43.18 68.9673C43.6348 68.7721 44.3265 68.2813 44.4793 68.1288C44.4793 68.1288 46.6959 66.0708 46.9252 65.5372C46.9252 64.5769 46.4667 65.3085 46.4667 65.3085C41.3459 72.8548 34.056 66.3548 32.9676 61.311C32.8737 60.783 32.0618 60.6395 32.1744 61.1161Z" fill="black"/>
<mask id="mask2_1467_1924" style="mask-type:luminance" maskUnits="userSpaceOnUse" x="60" y="6" width="5" height="5">
<path d="M64.5859 8.84861L61.2666 6.87891L60.0816 8.86514L63.4009 10.8348L64.5859 8.84861Z" fill="white"/>
</mask>
<g mask="url(#mask2_1467_1924)">
<mask id="mask3_1467_1924" style="mask-type:luminance" maskUnits="userSpaceOnUse" x="30" y="1" width="51" height="53">
<path d="M80.8165 13.286L43.1602 1.84082L30.7575 42.4291L68.4138 53.8743L80.8165 13.286Z" fill="white"/>
</mask>
<g mask="url(#mask3_1467_1924)">
<mask id="mask4_1467_1924" style="mask-type:luminance" maskUnits="userSpaceOnUse" x="30" y="1" width="51" height="53">
<path d="M80.8165 13.286L43.1602 1.84082L30.7575 42.4291L68.4138 53.8743L80.8165 13.286Z" fill="white"/>
</mask>
<g mask="url(#mask4_1467_1924)">
<path d="M60.4782 8.30984C60.4782 8.30984 60.6683 7.35377 62.1473 7.71424C63.6263 8.0747 64.4914 9.17426 63.9432 9.74543C63.4206 10.3318 60.6711 9.49318 60.4782 8.30984Z" fill="#F8D648"/>
</g>
</g>
</g>
<mask id="mask5_1467_1924" style="mask-type:luminance" maskUnits="userSpaceOnUse" x="26" y="0" width="60" height="61">
<path d="M85.6066 21.7703L49.4775 0.330811L26.598 38.6804L62.727 60.1199L85.6066 21.7703Z" fill="white"/>
</mask>
<g mask="url(#mask5_1467_1924)">
<mask id="mask6_1467_1924" style="mask-type:luminance" maskUnits="userSpaceOnUse" x="30" y="1" width="51" height="53">
<path d="M80.8175 13.2855L43.1611 1.84033L30.7585 42.4286L68.4148 53.8738L80.8175 13.2855Z" fill="white"/>
</mask>
<g mask="url(#mask6_1467_1924)">
<mask id="mask7_1467_1924" style="mask-type:luminance" maskUnits="userSpaceOnUse" x="30" y="1" width="51" height="53">
<path d="M80.8155 13.2855L43.1592 1.84033L30.7565 42.4286L68.4129 53.8738L80.8155 13.2855Z" fill="white"/>
</mask>
<g mask="url(#mask7_1467_1924)">
<mask id="mask8_1467_1924" style="mask-type:luminance" maskUnits="userSpaceOnUse" x="30" y="2" width="51" height="52">
<path d="M80.5559 14.3191L42.8447 2.85327L30.759 42.3907L68.4701 53.8566L80.5559 14.3191Z" fill="white"/>
</mask>
<g mask="url(#mask8_1467_1924)">
<mask id="mask9_1467_1924" style="mask-type:luminance" maskUnits="userSpaceOnUse" x="30" y="2" width="51" height="52">
<path d="M80.4922 14.3241L42.8379 2.87549L30.7521 42.4129L68.4064 53.8615L80.4922 14.3241Z" fill="white"/>
</mask>
<g mask="url(#mask9_1467_1924)">
<path d="M36.7033 27.713C36.7033 27.713 35.1465 26.9616 36.1078 25.1184C37.0436 23.2602 37.4354 21.7342 38.0315 20.3294C38.6531 18.9398 39.3836 18.0631 40.0837 17.2373C40.8094 16.4266 41.0974 15.77 41.6333 14.6399C42.1693 13.5098 45.28 4.52908 59.611 8.03373C61.2341 8.79004 63.0761 9.46932 63.0761 9.46932C63.0761 9.46932 65.4019 10.0909 66.9587 10.8424C68.5156 11.5939 71.6161 13.6406 72.3572 14.2528C73.1134 14.8395 76.0303 16.8462 76.0081 21.8671C75.9603 26.8728 74.6861 29.5302 74.9429 31.4755C75.1998 33.4209 73.7776 34.6457 73.7776 34.6457C73.7776 34.6457 72.8863 37.5304 72.0256 37.6402C71.6993 41.7221 68.3022 50.4295 68.3022 50.4295C68.3022 50.4295 67.5823 52.7951 65.7891 52.9033C63.9959 53.0115 61.5878 50.7895 61.0412 50.4307C60.4947 50.0719 48.791 43.2646 38.9078 43.7786C29.0246 44.2925 33.8361 35.0108 34.361 33.6673C34.8046 32.3444 36.7033 27.713 36.7033 27.713Z" fill="#0954B0"/>
</g>
</g>
</g>
</g>
</g>
<mask id="mask10_1467_1924" style="mask-type:luminance" maskUnits="userSpaceOnUse" x="29" y="0" width="55" height="56">
<path d="M83.6448 20.6038L50.4775 0.921875L29.573 35.9611L62.7402 55.643L83.6448 20.6038Z" fill="white"/>
</mask>
<g mask="url(#mask10_1467_1924)">
<mask id="mask11_1467_1924" style="mask-type:luminance" maskUnits="userSpaceOnUse" x="30" y="1" width="51" height="53">
<path d="M80.8214 13.286L43.165 1.84082L30.7624 42.4291L68.4187 53.8743L80.8214 13.286Z" fill="white"/>
</mask>
<g mask="url(#mask11_1467_1924)">
<mask id="mask12_1467_1924" style="mask-type:luminance" maskUnits="userSpaceOnUse" x="30" y="1" width="51" height="53">
<path d="M80.8214 13.286L43.165 1.84082L30.7624 42.4291L68.4187 53.8743L80.8214 13.286Z" fill="white"/>
</mask>
<g mask="url(#mask12_1467_1924)">
<path d="M39.5741 29.2777C39.6652 29.1249 39.7515 29.0382 39.7515 29.0382C39.7819 28.9873 39.7868 28.9212 39.7102 28.8757C39.6591 28.8454 39.5928 28.8406 39.5473 28.917C39.5473 28.917 39.5017 28.9934 39.3698 29.1565C39.3394 29.2074 39.3601 29.2886 39.4112 29.3189L39.4367 29.3341C39.503 29.3389 39.5437 29.3286 39.5741 29.2777ZM69.0365 39.1756C69.1028 39.1804 69.1587 39.1446 69.1635 39.0785C69.1933 38.8548 69.1927 38.6821 69.2327 38.499C69.2376 38.4329 69.2017 38.3771 69.1355 38.3723C69.0692 38.3675 69.0133 38.4032 69.0084 38.4693C69.0091 38.6421 68.969 38.8252 68.9392 39.0489C68.9088 39.0998 68.9447 39.1556 69.0365 39.1756C69.011 39.1604 69.011 39.1604 69.0365 39.1756ZM38.956 30.2556C39.0624 30.0774 39.1687 29.8991 39.2447 29.7718C39.2751 29.7209 39.2544 29.6397 39.2033 29.6094C39.1523 29.579 39.0708 29.5997 39.0404 29.6506C38.9493 29.8034 38.8581 29.9562 38.7366 30.1599C38.7062 30.2108 38.7269 30.2921 38.7779 30.3224L38.8035 30.3375C38.8697 30.3423 38.9256 30.3066 38.956 30.2556ZM68.8981 40.3347C68.9644 40.3396 69.0203 40.3038 69.0251 40.2377C69.0397 40.0395 69.0798 39.8564 69.0943 39.6581C69.0992 39.592 69.0633 39.5363 68.9971 39.5314C68.9308 39.5266 68.8749 39.5624 68.87 39.6285C68.8555 39.8267 68.8154 40.0098 68.8008 40.208C68.7704 40.259 68.8215 40.2893 68.8981 40.3347C68.8726 40.3196 68.8726 40.3196 68.8981 40.3347ZM38.4146 31.2791C38.5209 31.1008 38.5866 30.9329 38.6777 30.7801C38.7081 30.7292 38.6874 30.6479 38.6364 30.6176C38.5853 30.5873 38.5038 30.6079 38.4735 30.6589C38.3823 30.8117 38.276 30.9899 38.1951 31.1833C38.1648 31.2342 38.1854 31.3155 38.2365 31.3458L38.262 31.3609C38.3028 31.3506 38.3842 31.33 38.4146 31.2791ZM68.7342 41.4787C68.8004 41.4836 68.8564 41.4478 68.8612 41.3817C68.8758 41.1835 68.9159 41.0004 68.9304 40.8021C68.9353 40.736 68.8994 40.6803 68.8331 40.6754C68.7669 40.6706 68.711 40.7064 68.7061 40.7725C68.6916 40.9707 68.6515 41.1538 68.6369 41.352C68.6321 41.4181 68.6831 41.4484 68.7342 41.4787ZM37.8732 32.3025C37.954 32.1091 38.0451 31.9563 38.1363 31.8035C38.1667 31.7526 38.146 31.6713 38.0949 31.641C38.0439 31.6107 37.9624 31.6314 37.932 31.6823C37.8409 31.8351 37.7601 32.0285 37.6537 32.2067C37.6233 32.2577 37.644 32.3389 37.6951 32.3692C37.6951 32.3692 37.6951 32.3692 37.7206 32.3843C37.7869 32.3892 37.8428 32.3534 37.8732 32.3025ZM68.5703 42.6227C68.6365 42.6276 68.6924 42.5918 68.6973 42.5257C68.7374 42.3426 68.7519 42.1444 68.792 41.9613C68.7969 41.8952 68.761 41.8394 68.6947 41.8346C68.6285 41.8297 68.5726 41.8655 68.5677 41.9316C68.5276 42.1147 68.5131 42.3129 68.473 42.496C68.4426 42.547 68.4785 42.6027 68.5703 42.6227ZM37.3828 33.3562C37.4636 33.1628 37.5548 33.01 37.6204 32.8421C37.6508 32.7911 37.6301 32.7099 37.579 32.6796C37.528 32.6493 37.4465 32.6699 37.4161 32.7209C37.3505 32.8888 37.2442 33.0671 37.1633 33.2605C37.133 33.3114 37.1536 33.3926 37.2199 33.3975C37.2199 33.3975 37.2199 33.3975 37.2454 33.4126C37.2965 33.4429 37.3524 33.4071 37.3828 33.3562ZM68.3401 43.7619C68.4063 43.7667 68.4622 43.7309 68.4671 43.6649C68.5072 43.4818 68.5473 43.2987 68.5618 43.1004C68.5667 43.0343 68.5308 42.9786 68.4645 42.9737C68.3983 42.9689 68.3424 43.0047 68.3375 43.0708C68.2974 43.2538 68.2573 43.4369 68.2428 43.6352C68.2531 43.6758 68.289 43.7316 68.3401 43.7619ZM36.8924 34.4099C36.9732 34.2165 37.0389 34.0486 37.13 33.8958C37.1604 33.8449 37.1397 33.7636 37.0735 33.7588C37.0224 33.7285 36.941 33.7491 36.9361 33.8152C36.8705 33.9831 36.7897 34.1765 36.724 34.3445C36.6937 34.3954 36.7143 34.4766 36.7806 34.4815C36.8061 34.4966 36.8876 34.476 36.8924 34.4099ZM68.0843 44.8859C68.1506 44.8907 68.2065 44.8549 68.2369 44.804C68.277 44.6209 68.3171 44.4378 68.3724 44.2293C68.3772 44.1632 68.3413 44.1074 68.2751 44.1026C68.2088 44.0978 68.1529 44.1335 68.1481 44.1996C68.108 44.3827 68.0679 44.5658 68.0126 44.7743C67.9822 44.8253 68.0181 44.881 68.0843 44.8859ZM36.4683 35.4685C36.5491 35.2751 36.6148 35.1071 36.6804 34.9392C36.7108 34.8883 36.6901 34.807 36.6238 34.8022C36.5728 34.7719 36.4913 34.7925 36.4865 34.8586C36.4208 35.0265 36.34 35.22 36.2744 35.3879C36.244 35.4388 36.2647 35.5201 36.3565 35.54C36.382 35.5552 36.4379 35.5194 36.4683 35.4685ZM67.9149 45.9232C67.935 45.8316 67.9806 45.7552 68.0006 45.6637C68.0206 45.5722 68.0559 45.4551 68.0911 45.3381C68.096 45.2721 68.0601 45.2163 68.009 45.186C67.9428 45.1811 67.8868 45.2169 67.8565 45.2678C67.8212 45.3849 67.8012 45.4764 67.7811 45.5679C67.7611 45.6595 67.7155 45.7359 67.7107 45.802C67.6803 45.8529 67.7417 45.9238 67.7928 45.9541C67.8286 46.0099 67.8846 45.9741 67.9149 45.9232ZM35.9427 36.6392C36.009 36.6441 36.0649 36.6083 36.0953 36.5574C36.1001 36.4913 36.1457 36.4149 36.1506 36.3488C36.1858 36.2318 36.221 36.1148 36.2563 35.9978C36.2867 35.9468 36.266 35.8656 36.1742 35.8456C36.1231 35.8153 36.0417 35.8359 36.0216 35.9275C35.9864 36.0445 35.9512 36.1615 35.9159 36.2785C35.9111 36.3446 35.8655 36.421 35.8606 36.4871C35.8558 36.5532 35.8917 36.6089 35.9427 36.6392ZM67.4756 47.0072C67.5413 46.8393 67.6476 46.661 67.7284 46.4676C67.7588 46.4167 67.7381 46.3355 67.6463 46.3155C67.5953 46.2852 67.5138 46.3058 67.4938 46.3973C67.4129 46.5907 67.3473 46.7587 67.2562 46.9115C67.2258 46.9624 67.2465 47.0436 67.2975 47.0739C67.2975 47.0739 67.2975 47.0739 67.3231 47.0891C67.3893 47.0939 67.4452 47.0581 67.4756 47.0072ZM35.7788 37.7832C35.8451 37.7881 35.901 37.7523 35.9058 37.6862C35.9052 37.5134 35.9197 37.3152 35.9598 37.1321C35.9647 37.066 35.9288 37.0102 35.8625 37.0054C35.7963 37.0006 35.7404 37.0363 35.7355 37.1024C35.6954 37.2855 35.6657 37.5092 35.6663 37.682C35.6767 37.7226 35.7125 37.7784 35.7788 37.7832ZM54.8266 43.6387C54.8315 43.5726 54.7956 43.5168 54.7445 43.4865C54.5761 43.4211 54.367 43.3659 54.1986 43.3005C54.1324 43.2957 54.0765 43.3314 54.0461 43.3824C54.0412 43.4484 54.0771 43.5042 54.1282 43.5345C54.3117 43.5745 54.5057 43.6551 54.6741 43.7205C54.7403 43.7254 54.7962 43.6896 54.8266 43.6387ZM53.006 43.2134C53.1896 43.2534 53.3987 43.3085 53.5671 43.374C53.6333 43.3788 53.6893 43.343 53.7196 43.2921C53.7245 43.226 53.6886 43.1702 53.6375 43.1399C53.454 43.1 53.26 43.0194 53.0765 42.9794C53.0102 42.9745 52.9543 43.0103 52.9239 43.0612C52.8935 43.1122 52.9549 43.1831 53.006 43.2134ZM55.9184 44.0107C55.9488 43.9598 55.9281 43.8786 55.8363 43.8586C55.6679 43.7931 55.474 43.7125 55.2904 43.6725C55.2394 43.6422 55.1579 43.6629 55.1379 43.7544C55.1075 43.8053 55.1434 43.8611 55.2199 43.9066C55.3883 43.972 55.5975 44.0271 55.7658 44.0926C55.8321 44.0974 55.888 44.0616 55.9184 44.0107ZM51.8686 42.9177C52.0522 42.9577 52.2358 42.9977 52.4449 43.0528C52.5112 43.0577 52.5671 43.0219 52.5975 42.971C52.6023 42.9049 52.5664 42.8491 52.5154 42.8188C52.3318 42.7788 52.1482 42.7389 51.9391 42.6837C51.8728 42.6789 51.8169 42.7147 51.7865 42.7656C51.7817 42.8317 51.8024 42.9129 51.8686 42.9177ZM57.0053 44.4488C57.0357 44.3979 57.015 44.3167 56.9488 44.3118C56.7804 44.2464 56.5865 44.1658 56.4181 44.1003C56.367 44.07 56.2856 44.0907 56.2807 44.1568C56.2503 44.2077 56.271 44.2889 56.3628 44.3089C56.5567 44.3895 56.7251 44.4549 56.8935 44.5204C56.919 44.5355 56.975 44.4998 57.0053 44.4488ZM50.7264 42.6882L50.8182 42.7082C50.9762 42.733 51.1598 42.773 51.3179 42.7978C51.3841 42.8026 51.4401 42.7669 51.4449 42.7008C51.4498 42.6347 51.4139 42.5789 51.3476 42.5741C51.1896 42.5493 51.006 42.5093 50.8479 42.4845L50.7562 42.4645C50.6899 42.4596 50.634 42.4954 50.6291 42.5615C50.6395 42.6021 50.6753 42.6579 50.7264 42.6882ZM58.0619 44.9379C58.0923 44.887 58.0716 44.8057 58.0205 44.7754C57.8521 44.71 57.6734 44.6039 57.4795 44.5233C57.4284 44.493 57.347 44.5136 57.3421 44.5797C57.3117 44.6307 57.3324 44.7119 57.3987 44.7167C57.5926 44.7973 57.761 44.8628 57.9142 44.9537C57.9142 44.9537 57.9142 44.9537 57.9397 44.9688C57.9908 44.9991 58.0315 44.9888 58.0619 44.9379ZM49.6097 42.4738C49.7933 42.5137 49.9769 42.5537 50.1757 42.5682C50.2419 42.5731 50.2978 42.5373 50.3027 42.4712C50.3075 42.4051 50.2717 42.3494 50.2054 42.3445C50.0218 42.3046 49.8231 42.29 49.6395 42.2501C49.5732 42.2452 49.5173 42.281 49.5124 42.3471C49.4821 42.398 49.5179 42.4538 49.6097 42.4738C49.5842 42.4586 49.5842 42.4586 49.6097 42.4738ZM48.4523 42.2697C48.6359 42.3096 48.8347 42.3241 49.0183 42.3641C49.0845 42.369 49.1404 42.3332 49.1453 42.2671C49.1501 42.201 49.1143 42.1453 49.048 42.1404C48.8644 42.1004 48.6656 42.0859 48.4821 42.0459C48.4158 42.0411 48.3599 42.0769 48.355 42.143C48.3398 42.1684 48.3757 42.2242 48.4523 42.2697ZM59.1032 45.4524C59.1336 45.4015 59.113 45.3202 59.0619 45.2899C58.9087 45.199 58.7148 45.1184 58.536 45.0124C58.485 44.9821 58.4035 45.0027 58.3731 45.0536C58.3428 45.1046 58.3634 45.1858 58.4145 45.2161C58.6084 45.2967 58.7616 45.3876 58.9403 45.4937C58.9403 45.4937 58.9404 45.4937 58.9659 45.5088C59.0321 45.5137 59.0881 45.4779 59.1032 45.4524ZM47.2949 42.0655C47.4785 42.1055 47.6773 42.12 47.8608 42.16C47.9271 42.1649 47.983 42.1291 47.9879 42.063C47.9927 41.9969 47.9569 41.9412 47.8906 41.9363C47.707 41.8963 47.5082 41.8818 47.3247 41.8418C47.2584 41.837 47.2025 41.8728 47.1976 41.9389C47.208 41.9795 47.2438 42.0352 47.2949 42.0655ZM66.8169 47.9955C66.9336 47.8578 67.0654 47.6947 67.1718 47.5165C67.2022 47.4656 67.1815 47.3843 67.1304 47.354C67.0794 47.3237 66.9979 47.3444 66.9675 47.3953C66.8612 47.5735 66.7445 47.7112 66.6278 47.8488C66.5974 47.8997 66.5926 47.9658 66.6284 48.0216C66.654 48.0367 66.654 48.0367 66.6795 48.0519C66.7458 48.0567 66.7865 48.0464 66.8169 47.9955ZM60.1294 45.9924C60.1598 45.9415 60.1391 45.8602 60.0881 45.8299C59.9349 45.739 59.7561 45.633 59.5622 45.5524C59.5111 45.5221 59.4297 45.5427 59.3993 45.5936C59.3689 45.6445 59.3896 45.7258 59.4407 45.7561C59.6194 45.8621 59.7878 45.9276 59.9665 46.0336L59.992 46.0488C60.0583 46.0536 60.099 46.0433 60.1294 45.9924ZM46.1375 41.8614C46.3211 41.9014 46.5199 41.9159 46.7034 41.9559C46.7697 41.9608 46.8256 41.925 46.8305 41.8589C46.8353 41.7928 46.7994 41.737 46.7332 41.7322C46.5496 41.6922 46.3508 41.6777 46.1672 41.6377C46.101 41.6329 46.0451 41.6687 46.0402 41.7348C46.0506 41.7754 46.0864 41.8311 46.1375 41.8614ZM45.0056 41.6725C45.1892 41.7125 45.388 41.727 45.5716 41.767C45.6378 41.7718 45.6937 41.736 45.6986 41.6699C45.7034 41.6039 45.6676 41.5481 45.6013 41.5433C45.4177 41.5033 45.219 41.4888 45.0354 41.4488C44.9691 41.4439 44.9132 41.4797 44.9083 41.5458C44.9035 41.6119 44.9394 41.6677 45.0056 41.6725ZM35.9613 38.9259C36.0173 38.8902 36.0476 38.8392 36.0525 38.7732C35.9856 38.5955 35.9442 38.4331 35.9333 38.2197C35.9381 38.1536 35.8615 38.1082 35.8208 38.1185C35.7545 38.1136 35.709 38.19 35.7193 38.2306C35.7303 38.444 35.782 38.6471 35.8489 38.8247C35.8592 38.8653 35.8848 38.8805 35.9358 38.9108C35.9206 38.9363 35.9613 38.9259 35.9613 38.9259ZM61.1252 46.5833C61.1556 46.5324 61.1349 46.4511 61.0838 46.4208C60.9306 46.3299 60.7519 46.2239 60.5732 46.1178C60.5221 46.0875 60.4407 46.1081 60.4103 46.1591C60.3799 46.21 60.4006 46.2912 60.4516 46.3215C60.6304 46.4276 60.7836 46.5185 60.9623 46.6246L60.9878 46.6397C61.0541 46.6445 61.11 46.6088 61.1252 46.5833ZM43.8482 41.4684C44.0318 41.5084 44.2306 41.5229 44.4141 41.5629C44.4804 41.5677 44.5363 41.5319 44.5412 41.4658C44.546 41.3998 44.5102 41.344 44.4439 41.3392C44.2603 41.2992 44.0615 41.2847 43.878 41.2447C43.8117 41.2398 43.7558 41.2756 43.7509 41.3417C43.7461 41.4078 43.782 41.4635 43.8482 41.4684C43.833 41.4938 43.833 41.4938 43.8482 41.4684ZM42.7011 41.3049C42.8847 41.3449 43.0835 41.3594 43.2671 41.3994C43.3333 41.4042 43.3893 41.3684 43.3941 41.3024C43.399 41.2363 43.3631 41.1805 43.2968 41.1757C43.0981 41.1611 42.9145 41.1212 42.7309 41.0812C42.6646 41.0763 42.6087 41.1121 42.6039 41.1782C42.599 41.2443 42.6349 41.3001 42.7011 41.3049ZM62.1465 47.1894C62.1769 47.1384 62.1562 47.0572 62.1051 47.0269C61.952 46.936 61.7732 46.8299 61.6097 46.6984C61.5586 46.6681 61.4772 46.6887 61.4468 46.7397C61.4164 46.7906 61.4371 46.8718 61.4881 46.9021C61.6669 47.0082 61.8456 47.1142 61.9836 47.2306L62.0091 47.2458C62.0347 47.2609 62.1161 47.2403 62.1465 47.1894ZM41.5541 41.1414C41.7377 41.1814 41.9364 41.1959 42.1352 41.2104C42.2015 41.2153 42.2574 41.1795 42.2622 41.1134C42.2671 41.0473 42.2312 40.9915 42.165 40.9867C41.9662 40.9722 41.7826 40.9322 41.5838 40.9177C41.5176 40.9129 41.4616 40.9486 41.4568 41.0147C41.4519 41.0808 41.4878 41.1366 41.5541 41.1414ZM65.7952 48.6649C65.9988 48.6134 66.1921 48.5212 66.3598 48.4139C66.4158 48.3781 66.4206 48.312 66.3847 48.2562C66.3489 48.2005 66.2826 48.1956 66.2267 48.2314C66.0589 48.3387 65.9064 48.4206 65.7179 48.4467C65.6365 48.4673 65.6061 48.5183 65.6268 48.5995C65.6371 48.6401 65.6627 48.6553 65.7137 48.6856C65.7544 48.6753 65.7696 48.6498 65.7952 48.6649ZM63.1271 47.8057C63.1575 47.7548 63.1368 47.6736 63.0857 47.6433C62.9581 47.5675 62.7538 47.4463 62.6006 47.3554C62.5496 47.3251 62.4681 47.3457 62.4377 47.3967C62.4073 47.4476 62.428 47.5288 62.4791 47.5591C62.7344 47.7106 62.8621 47.7864 62.9897 47.8622L63.0153 47.8773C63.056 47.867 63.0967 47.8567 63.1271 47.8057ZM40.3918 41.0034C40.5499 41.0282 40.7486 41.0427 40.9729 41.0724C41.0392 41.0772 41.0951 41.0415 41.1 40.9754C41.1048 40.9093 41.069 40.8535 41.0027 40.8487C40.7784 40.819 40.5948 40.779 40.4216 40.7797C40.3553 40.7748 40.2994 40.8106 40.2945 40.8767C40.3049 40.9173 40.3152 40.9579 40.3918 41.0034ZM36.6526 39.8534C36.7086 39.8176 36.6879 39.7364 36.652 39.6806C36.514 39.5642 36.4064 39.3969 36.2836 39.2551C36.2477 39.1993 36.1814 39.1945 36.1255 39.2302C36.0696 39.266 36.0648 39.3321 36.1006 39.3879C36.2082 39.5552 36.3566 39.7122 36.4794 39.854C36.5049 39.8692 36.5049 39.8692 36.5305 39.8843C36.556 39.8995 36.6223 39.9043 36.6526 39.8534ZM64.1837 48.2948C64.214 48.2439 64.1934 48.1626 64.1423 48.1323C64.0402 48.0717 63.9228 48.0366 63.8207 47.976C63.7441 47.9305 63.693 47.9002 63.642 47.8699C63.5909 47.8396 63.5095 47.8602 63.4791 47.9112C63.4487 47.9621 63.4694 48.0433 63.5204 48.0736C63.5715 48.1039 63.6481 48.1494 63.6992 48.1797C63.8013 48.2403 63.9186 48.2755 64.0463 48.3512C64.0463 48.3512 64.0463 48.3512 64.0718 48.3664C64.0974 48.3815 64.1533 48.3457 64.1837 48.2948ZM39.2447 40.8399C39.311 40.8447 39.4691 40.8696 39.8259 40.9089C39.8921 40.9137 39.9481 40.878 39.9529 40.8119C39.9578 40.7458 39.9219 40.69 39.8556 40.6852C39.5395 40.6355 39.3663 40.6362 39.3 40.6313L39.2745 40.6162C39.2082 40.6113 39.1523 40.6471 39.173 40.7284C39.1274 40.8047 39.1785 40.8351 39.2447 40.8399C39.2296 40.8654 39.2296 40.8654 39.2447 40.8399ZM65.1788 48.7129C65.2451 48.7178 65.301 48.682 65.3058 48.6159C65.3107 48.5498 65.2748 48.4941 65.2085 48.4892C65.0353 48.4899 64.8517 48.4499 64.6578 48.3693C64.5915 48.3645 64.5356 48.4002 64.5052 48.4512C64.4749 48.5021 64.5363 48.573 64.5873 48.6033C64.6129 48.6185 64.6384 48.6336 64.6536 48.6081C64.8372 48.6481 65.0208 48.6881 65.1788 48.7129ZM37.6484 40.4443C37.6788 40.3934 37.6581 40.3121 37.5919 40.3073C37.4235 40.2418 37.2448 40.1358 37.0916 40.0449C37.0405 40.0146 36.959 40.0352 36.9287 40.0861C36.8983 40.137 36.919 40.2183 36.97 40.2486C37.1232 40.3395 37.3019 40.4456 37.4959 40.5262C37.5621 40.531 37.618 40.4952 37.6484 40.4443ZM38.057 40.6867C38.2405 40.7267 38.4497 40.7818 38.6484 40.7963C38.7147 40.8012 38.7706 40.7654 38.7755 40.6993C38.7803 40.6332 38.7444 40.5775 38.6782 40.5726C38.4946 40.5327 38.2958 40.5181 38.1274 40.4527C38.0612 40.4479 38.0053 40.4836 37.9749 40.5346C37.97 40.6006 38.0059 40.6564 38.057 40.6867ZM69.1342 38.0267C69.2004 38.0316 69.2564 37.9958 69.2612 37.9297C69.2758 37.7315 69.2958 37.6399 69.2958 37.6399C69.3007 37.5738 69.2648 37.5181 69.1985 37.5132C69.1323 37.5084 69.0764 37.5442 69.0715 37.6103C69.0715 37.6103 69.077 37.717 69.0369 37.9C69.0065 37.951 69.0576 37.9813 69.1342 38.0267ZM63.0774 9.46914C67.8864 10.5644 70.2289 12.9544 73.3338 16.2106C76.4388 19.4668 74.4077 25.5368 73.3358 27.797C72.2639 30.0572 72.0155 34.5301 72.0155 34.5301C72.0155 34.5301 72.0166 37.5995 70.7334 37.8379C64.69 37.7686 41.7114 29.9254 39.7564 28.9721C37.8013 28.0188 38.195 27.0112 38.195 27.0112C38.195 27.0112 38.4909 25.7041 39.5889 23.6318C40.687 21.5595 41.9875 16.3662 42.3321 15.8466C42.6919 15.3016 43.6007 8.91046 50.2919 7.77809C57.019 6.70148 63.0774 9.46914 63.0774 9.46914Z" fill="#F0F0EF"/>
</g>
</g>
</g>
<path d="M66.5899 26.5863L66.4823 26.419C66.267 26.0844 65.8336 25.9996 65.5236 26.2294L63.4243 27.6041C63.0888 27.8187 63.0038 28.251 63.2342 28.5601L63.3418 28.7274C63.5571 29.0621 63.9905 29.1469 64.3004 28.917L66.3998 27.5423C66.7201 27.3531 66.8051 26.9209 66.5899 26.5863Z" fill="url(#paint0_linear_1467_1924)"/>
<path d="M50.8102 27.6005L50.4931 28.6536L50.3247 28.5881L50.6418 27.535C50.7323 27.2095 50.6144 27.0016 50.3542 26.9161C50.094 26.8307 49.8193 26.9435 49.668 27.3709L49.3861 28.307L49.2177 28.2415L49.5348 27.1885C49.6253 26.8629 49.5074 26.655 49.2472 26.5695C48.987 26.4841 48.6716 26.6072 48.561 27.0243L48.2791 27.9604L48.1107 27.895L48.6192 26.2314L48.7876 26.2968L48.6867 26.5818C48.8745 26.3829 49.1037 26.3465 49.3232 26.4422C49.5578 26.5125 49.7317 26.6846 49.7275 26.9235C49.9153 26.7246 50.1444 26.6882 50.3791 26.7585C50.7414 26.9045 50.9207 27.1834 50.8102 27.6005Z" fill="#4D5050"/>
<path d="M53.0721 27.6323L52.5636 29.2959L52.3952 29.2305L52.5161 28.854C52.2875 29.0632 52.0025 29.1354 51.676 29.0451C51.2067 28.9045 50.9501 28.4074 51.0655 27.9243C51.2217 27.4308 51.7201 27.1748 52.1894 27.3154C52.5158 27.4057 52.7104 27.6591 52.7828 27.9434L52.9037 27.5669L53.0721 27.6323ZM52.6418 28.4114C52.7627 28.0349 52.5675 27.6088 52.1493 27.4985C51.7718 27.3779 51.3548 27.6132 51.2339 27.9897C51.113 28.3662 51.3082 28.7923 51.7265 28.9026C52.1295 29.0383 52.5465 28.8031 52.6418 28.4114Z" fill="#4D5050"/>
<path d="M54.1157 29.768L53.4748 28.6981L53.2282 29.5172L53.0598 29.4518L53.7748 27.1522L53.9432 27.2176L53.5204 28.6217L54.5835 28.1147L54.8181 28.185L53.6736 28.7126L54.3352 29.8638L54.1157 29.768Z" fill="#4D5050"/>
<path d="M56.3308 29.5314C56.3156 29.5569 56.3004 29.5824 56.3108 29.623L54.8111 29.1813C54.7309 29.5475 54.9462 29.8821 55.3237 30.0027C55.5839 30.0881 55.8282 30.0262 55.9856 29.8783L56.1084 30.0201C55.8951 30.2038 55.61 30.276 55.258 30.1706C54.7632 30.0149 54.4914 29.5433 54.6476 29.0498C54.8037 28.5563 55.2614 28.3107 55.7714 28.4409C56.2814 28.5712 56.4566 29.0889 56.3308 29.5314ZM54.8512 28.9982L56.1673 29.3999C56.2371 28.9931 56.0474 28.6737 55.721 28.5834C55.3435 28.4628 54.9976 28.6369 54.8512 28.9982Z" fill="#4D5050"/>
<path d="M57.0766 28.2837C57.0815 28.2176 57.1781 28.1715 57.2444 28.1764C57.3106 28.1812 57.3569 28.2776 57.352 28.3437C57.3472 28.4098 57.2505 28.4559 57.1843 28.451C57.0925 28.431 57.0718 28.3498 57.0766 28.2837ZM56.9564 28.833L57.1248 28.8984L56.6163 30.562L56.4479 30.4966L56.9564 28.833Z" fill="#4D5050"/>
<path d="M57.9605 29.2917L57.6281 30.3703C57.5273 30.6552 57.6957 30.7207 58.0373 30.7855L57.9869 30.9279C57.5383 30.8686 57.3389 30.6813 57.4598 30.3048L57.7921 29.2263L57.4401 29.1208L57.5057 28.9529L57.8577 29.0583L57.9938 28.6564L58.167 28.6557L58.0261 29.1238L58.5209 29.2795L58.4553 29.4474L57.9605 29.2917Z" fill="#4D5050"/>
<path d="M60.6448 31.7463L60.1244 31.5754L60.5424 30.2374L59.6435 31.0487L59.5925 31.0184L59.2926 29.8405L58.8746 31.1786L58.3543 31.0077L59.0693 28.7081L59.5897 28.879L59.8999 30.0975L60.8395 29.2759L61.3599 29.4467L60.6448 31.7463Z" fill="#4D5050"/>
<path d="M61.5424 29.4865L62.129 29.6622L62.1257 31.5222L63.1594 29.9633L63.746 30.1391L62.3015 32.2126L61.6231 32.0169L61.5424 29.4865Z" fill="#4D5050"/>
<path d="M65.3773 31.5208C65.2516 31.9633 64.7939 32.2089 64.3246 32.0684L63.9726 31.963L63.746 32.6905L63.2257 32.5196L63.9407 30.22L64.8131 30.4963C65.2568 30.6217 65.5031 31.0782 65.3773 31.5208ZM64.8418 31.3754C64.9074 31.2074 64.7998 31.0401 64.6569 30.9898L64.305 30.8844L64.1288 31.4694L64.4808 31.5749C64.6236 31.6252 64.7914 31.5178 64.8418 31.3754Z" fill="#4D5050"/>
<path d="M62.8264 20.5584C63.1048 20.034 63.2961 19.4235 63.3446 18.7627C63.5746 16.1752 61.6807 13.8445 59.0656 13.534C57.414 13.3469 55.8726 14.0183 54.8832 15.1552C55.037 15.4188 55.5124 15.8389 56.6521 15.3773C58.2446 14.7363 60.859 14.8741 61.8131 16.578C63.3983 19.4841 60.1757 21.6404 62.7868 23.6381L63.2865 23.7277L62.7617 22.3474C62.4948 21.8097 62.5433 21.1489 62.8264 20.5584Z" fill="#F8D648"/>
<path d="M66.3729 24.1126L66.2652 23.9453C66.0859 23.6664 65.7084 23.5458 65.4184 23.6841C65.3587 22.6832 64.6474 21.8473 64.9658 21.1398C65.8802 19.0275 65.7333 16.4923 64.3397 14.424C62.1673 11.1695 57.7668 10.3167 54.5187 12.4578C51.2555 14.6245 50.4004 19.0132 52.5473 22.2525C53.9512 24.3614 56.2686 25.4607 58.6173 25.4064C59.244 25.399 59.7408 26.073 60.4405 26.5228L63.7719 24.8793L60.7627 26.8519C60.6667 27.0708 60.6881 27.3248 60.806 27.5327L60.9136 27.7C61.1289 28.0346 61.5623 28.1194 61.8723 27.8896L66.1572 25.0535C66.5031 24.8794 66.5881 24.4472 66.3729 24.1126ZM64.444 16.4513C64.846 17.6897 64.7897 19.001 64.3407 20.2172C64.3789 19.5158 64.5496 18.8241 64.4704 18.0875C64.3164 16.3755 63.4493 14.7576 62.0747 13.7006C61.0527 12.9217 59.767 12.4691 58.4778 12.4281C57.4942 12.3961 56.6852 12.7091 55.7637 12.9208C59.069 11.0894 63.3201 12.888 64.444 16.4513ZM62.7536 23.6888L60.1427 23.1394C59.8673 23.0794 59.5871 23.0855 59.3172 23.1323C58.9659 23.1996 58.6042 23.2263 58.2474 23.187C55.5819 23.0189 53.5506 20.7447 53.7343 18.0608C53.8016 16.9629 54.2464 15.9856 54.9161 15.2107C55.9207 14.0484 57.447 13.4025 59.0986 13.5895C61.6881 13.8849 63.5972 16.1901 63.3776 18.8182C63.3036 19.4638 63.1529 20.064 62.8594 20.614C62.5507 21.1893 62.5429 21.8398 62.7643 22.4539L63.2891 23.8342L62.7536 23.6888Z" fill="url(#paint1_linear_1467_1924)"/>
<defs>
<linearGradient id="paint0_linear_1467_1924" x1="41.9761" y1="27.1695" x2="70.6685" y2="27.6969" gradientUnits="userSpaceOnUse">
<stop stop-color="#58C5D0"/>
<stop offset="0.3896" stop-color="#499CC0"/>
<stop offset="1" stop-color="#2F54A4"/>
</linearGradient>
<linearGradient id="paint1_linear_1467_1924" x1="42.1209" y1="19.3481" x2="70.8133" y2="19.8755" gradientUnits="userSpaceOnUse">
<stop stop-color="#58C5D0"/>
<stop offset="0.3896" stop-color="#499CC0"/>
<stop offset="1" stop-color="#2F54A4"/>
</linearGradient>
</defs>
</svg>
